<svg id="Logo_copy" data-name="Logo copy" xmlns="http://www.w3.org/2000/svg" width="181.906" height="132.313" viewBox="0 0 181.906 132.313">
  <defs>
    <style>
      .cls-1 {
        fill: #fe0102;
        fill-rule: evenodd;
      }
    </style>
  </defs>
  <path id="Amsterdam" class="cls-1" d="M755.112,288.911l2.028-5.746q0.182-.456.383-1.073t0.383-1.345q0.182,0.714.384,1.326t0.383,1.066l2.04,5.772h-5.6Zm4.8-11.7h-3.99l-7.368,18.863H751.6a1.244,1.244,0,0,0,.818-0.267,1.483,1.483,0,0,0,.455-0.591l1.274-3.6h7.511l1.273,3.6a1.451,1.451,0,0,0,.475.617,1.327,1.327,0,0,0,.825.241h3.028Zm29.394,0c-0.173,0-.322,0-0.448.013a1.15,1.15,0,0,0-.338.071,0.865,0.865,0,0,0-.279.182,1.346,1.346,0,0,0-.247.345l-5.237,10.023q-0.248.454-.461,0.949t-0.41,1.014q-0.2-.507-0.409-0.988t-0.461-.936l-5.277-10.062a1.445,1.445,0,0,0-.24-0.345,0.792,0.792,0,0,0-.273-0.182,1.164,1.164,0,0,0-.344-0.071c-0.13-.009-0.278-0.013-0.442-0.013h-2.963v18.863h3.444V284.491q0-.365-0.026-0.787c-0.018-.281-0.039-0.574-0.065-0.877l5.419,10.27a1.455,1.455,0,0,0,1.364.845h0.546a1.449,1.449,0,0,0,1.365-.845l5.393-10.231c-0.035.286-.059,0.567-0.072,0.845s-0.019.537-.019,0.78v11.583h3.443V277.211H789.3Zm20.026,1.781a7.068,7.068,0,0,0-2.45-1.463,9.159,9.159,0,0,0-3.151-.526,7.252,7.252,0,0,0-2.7.468,6.114,6.114,0,0,0-1.981,1.235,5.158,5.158,0,0,0-1.222,1.755,5.214,5.214,0,0,0-.416,2.041,5.7,5.7,0,0,0,.371,2.2,4.541,4.541,0,0,0,.968,1.482,4.878,4.878,0,0,0,1.364.962,13.061,13.061,0,0,0,1.573.624q0.806,0.26,1.572.474a7.6,7.6,0,0,1,1.364.514,2.969,2.969,0,0,1,.969.741,1.739,1.739,0,0,1,.37,1.157,2.285,2.285,0,0,1-.747,1.859,3.207,3.207,0,0,1-2.112.624,4.44,4.44,0,0,1-1.6-.26,7.324,7.324,0,0,1-1.176-.572q-0.507-.312-0.9-0.572a1.337,1.337,0,0,0-.74-0.26,0.963,0.963,0,0,0-.494.136,1.151,1.151,0,0,0-.377.345L796.67,293.8a6.9,6.9,0,0,0,1.274,1.014,9.514,9.514,0,0,0,1.553.78,10.437,10.437,0,0,0,1.715.507,8.927,8.927,0,0,0,1.787.182,7.759,7.759,0,0,0,2.814-.481,5.989,5.989,0,0,0,2.085-1.32,5.719,5.719,0,0,0,1.293-1.963,6.444,6.444,0,0,0,.449-2.411,4.893,4.893,0,0,0-.371-2.009,4.36,4.36,0,0,0-.974-1.4,5.509,5.509,0,0,0-1.371-.949,13.928,13.928,0,0,0-1.573-.657q-0.806-.279-1.572-0.513a9.1,9.1,0,0,1-1.371-.533,3.233,3.233,0,0,1-.975-0.709,1.48,1.48,0,0,1-.37-1.033,2.019,2.019,0,0,1,.676-1.58,2.958,2.958,0,0,1,2.027-.6,4.033,4.033,0,0,1,1.338.2,7.617,7.617,0,0,1,1.014.436q0.441,0.234.773,0.435a1.2,1.2,0,0,0,.617.2A0.812,0.812,0,0,0,808,281.26a1.486,1.486,0,0,0,.37-0.435Zm18.44-1.781H812.836v3.146h5.51v15.717h3.912V280.357h5.51v-3.146Zm16.308,3.055v-3.055H832.069v18.863h12.007v-3.055h-8.083v-4.953h6.29v-2.951h-6.29v-4.849h8.083Zm8.759,5.876v-5.967h2.027a4.172,4.172,0,0,1,2.71.741,2.557,2.557,0,0,1,.89,2.08,3.648,3.648,0,0,1-.208,1.248,2.584,2.584,0,0,1-.65.994,3.065,3.065,0,0,1-1.131.663,4.96,4.96,0,0,1-1.637.241h-2Zm6.744,3.146a3.4,3.4,0,0,0-.585-0.7,3.716,3.716,0,0,0-.7-0.5,6.479,6.479,0,0,0,1.689-.858,5.6,5.6,0,0,0,1.248-1.222,5.249,5.249,0,0,0,.773-1.528,5.841,5.841,0,0,0,.266-1.774,5.744,5.744,0,0,0-.416-2.217,4.351,4.351,0,0,0-1.312-1.735,6.506,6.506,0,0,0-2.3-1.138,12.179,12.179,0,0,0-3.379-.409h-5.926v18.863h3.9v-7.189h1.325a1.581,1.581,0,0,1,.786.156,1.514,1.514,0,0,1,.488.494l3.586,5.785a1.532,1.532,0,0,0,1.43.754h3.522Zm24.4-6.435a8.718,8.718,0,0,0-1.962-2.984,8.928,8.928,0,0,0-3.047-1.956,10.686,10.686,0,0,0-3.951-.7h-7.251v18.863h7.251a10.686,10.686,0,0,0,3.951-.7,8.974,8.974,0,0,0,3.047-1.95,8.633,8.633,0,0,0,1.962-2.984A10.681,10.681,0,0,0,883.977,282.853Zm-3.7,6.461a5.688,5.688,0,0,1-1.117,2.008,4.776,4.776,0,0,1-1.774,1.261,6.112,6.112,0,0,1-2.372.436H871.69V280.266h3.327a6.039,6.039,0,0,1,2.372.442,4.881,4.881,0,0,1,1.774,1.261,5.617,5.617,0,0,1,1.117,2A9.345,9.345,0,0,1,880.28,289.314Zm13.567-.4,2.027-5.746q0.181-.456.383-1.073c0.135-.411.262-0.86,0.384-1.345q0.182,0.714.383,1.326t0.384,1.066l2.04,5.772h-5.6Zm4.8-11.7h-3.989l-7.369,18.863h3.054a1.249,1.249,0,0,0,.819-0.267,1.492,1.492,0,0,0,.455-0.591l1.273-3.6H900.4l1.274,3.6a1.457,1.457,0,0,0,.474.617,1.329,1.329,0,0,0,.825.241H906Zm28.875,0c-0.173,0-.323,0-0.448.013a1.143,1.143,0,0,0-.338.071,0.855,0.855,0,0,0-.279.182,1.346,1.346,0,0,0-.247.345l-5.237,10.023q-0.247.454-.462,0.949t-0.409,1.014q-0.195-.507-0.409-0.988t-0.462-.936l-5.276-10.062a1.474,1.474,0,0,0-.24-0.345,0.812,0.812,0,0,0-.273-0.182,1.164,1.164,0,0,0-.344-0.071c-0.13-.009-0.278-0.013-0.442-0.013h-2.963v18.863h3.444V284.491q0-.365-0.026-0.787c-0.018-.281-0.039-0.574-0.065-0.877l5.419,10.27a1.5,1.5,0,0,0,.558.63,1.516,1.516,0,0,0,.806.215h0.546a1.446,1.446,0,0,0,1.364-.845l5.393-10.231c-0.034.286-.058,0.567-0.071,0.845s-0.02.537-.02,0.78v11.583h3.444V277.211h-2.963Z" transform="translate(-748.563 -196)"/>
  <path id="JSNation" class="cls-1" d="M768.048,306.849h-1.53v14.175a9.365,9.365,0,0,1-.337,2.662,4.987,4.987,0,0,1-.982,1.875,3.96,3.96,0,0,1-1.559,1.1,5.573,5.573,0,0,1-2.055.36,5.309,5.309,0,0,1-.794-0.053q-0.345-.053-0.6-0.112c-0.17-.04-0.318-0.078-0.443-0.113a1.219,1.219,0,0,0-.322-0.052,0.351,0.351,0,0,0-.292.1,0.591,0.591,0,0,0-.113.24c-0.02.14-.037,0.28-0.052,0.42s-0.028.28-.038,0.42a10.028,10.028,0,0,0,1.425.33,9.04,9.04,0,0,0,1.364.105,6.989,6.989,0,0,0,2.639-.473,5.263,5.263,0,0,0,2-1.4,6.291,6.291,0,0,0,1.259-2.3,10.382,10.382,0,0,0,.435-3.15V306.849Zm18.967,1.89a7.094,7.094,0,0,0-2.391-1.6,7.917,7.917,0,0,0-2.962-.525,7.019,7.019,0,0,0-2.616.457,5.819,5.819,0,0,0-1.927,1.215,5.11,5.11,0,0,0-1.184,1.748,5.377,5.377,0,0,0-.4,2.055,5.023,5.023,0,0,0,.457,2.272,4.564,4.564,0,0,0,1.207,1.515,6.745,6.745,0,0,0,1.7,1q0.952,0.39,1.957.7t1.957,0.645a7.8,7.8,0,0,1,1.7.817,3.94,3.94,0,0,1,1.207,1.215,3.427,3.427,0,0,1,.458,1.853,5.217,5.217,0,0,1-.36,1.942,4.42,4.42,0,0,1-1.042,1.568,4.92,4.92,0,0,1-1.672,1.042,6.206,6.206,0,0,1-2.249.383,6.762,6.762,0,0,1-1.635-.18,6.912,6.912,0,0,1-1.274-.443,5.965,5.965,0,0,1-.975-0.57q-0.42-.308-0.719-0.57c-0.2-.175-0.37-0.322-0.51-0.442a0.6,0.6,0,0,0-.345-0.18,0.528,0.528,0,0,0-.42.225l-0.42.66a8.513,8.513,0,0,0,2.654,2.032,8.134,8.134,0,0,0,3.614.743,7.726,7.726,0,0,0,2.879-.5,6.237,6.237,0,0,0,2.129-1.372,5.864,5.864,0,0,0,1.327-2.048,6.873,6.873,0,0,0,.457-2.512,4.689,4.689,0,0,0-.457-2.183,4.574,4.574,0,0,0-1.207-1.477,7.056,7.056,0,0,0-1.7-1q-0.952-.4-1.957-0.727t-1.957-.668a7.8,7.8,0,0,1-1.7-.832,4.11,4.11,0,0,1-1.207-1.2,3.219,3.219,0,0,1-.458-1.785,4.112,4.112,0,0,1,.308-1.575,3.814,3.814,0,0,1,.9-1.32,4.242,4.242,0,0,1,1.47-.9,6.578,6.578,0,0,1,3.973-.045,6.425,6.425,0,0,1,2.144,1.237,0.866,0.866,0,0,0,.5.278,0.423,0.423,0,0,0,.39-0.255Zm21.442-2.43v12.45q0,0.48.03,1.012t0.09,1.1l-10.916-13.86a3.062,3.062,0,0,0-.33-0.36,1.425,1.425,0,0,0-.315-0.218,1.079,1.079,0,0,0-.367-0.1,4.52,4.52,0,0,0-.487-0.022h-2.369v21.765h3.973V315.489q0-.435-0.022-0.945t-0.068-1.035l10.841,13.8a2.139,2.139,0,0,0,.7.592,2.035,2.035,0,0,0,.885.173h2.324V306.309h-3.974Zm15.8,13.5,2.339-6.63q0.21-.525.443-1.238t0.442-1.552q0.21,0.825.442,1.53t0.443,1.23l2.354,6.66h-6.463Zm5.533-13.5h-4.6l-8.5,21.765h3.524a1.441,1.441,0,0,0,.944-0.308,1.711,1.711,0,0,0,.525-0.682l1.47-4.155h8.666l1.47,4.155a1.678,1.678,0,0,0,.547.712,1.537,1.537,0,0,0,.952.278h3.494Zm28.144,0H840.71v3.63h6.358v18.135h4.513V309.939h6.357v-3.63Zm9.492,0H862.9v21.765h4.529V306.309Zm27.027,6.472a10.264,10.264,0,0,0-5.781-5.865,12.688,12.688,0,0,0-9.116,0,10.556,10.556,0,0,0-3.524,2.333,10.308,10.308,0,0,0-2.271,3.517,12.574,12.574,0,0,0,0,8.843,10.294,10.294,0,0,0,2.271,3.525,10.553,10.553,0,0,0,3.524,2.332,12.674,12.674,0,0,0,9.116,0,10.22,10.22,0,0,0,5.781-5.857A12.548,12.548,0,0,0,894.457,312.781Zm-4.251,7.485a6.443,6.443,0,0,1-1.3,2.3,5.626,5.626,0,0,1-2.054,1.447,7.717,7.717,0,0,1-5.481,0,5.605,5.605,0,0,1-2.062-1.447,6.443,6.443,0,0,1-1.3-2.3,10.754,10.754,0,0,1,0-6.15,6.518,6.518,0,0,1,1.3-2.31,5.567,5.567,0,0,1,2.062-1.455,7.731,7.731,0,0,1,5.481,0,5.587,5.587,0,0,1,2.054,1.455,6.518,6.518,0,0,1,1.3,2.31A10.731,10.731,0,0,1,890.206,320.266Zm25.265-13.957v12.45q0,0.48.03,1.012t0.09,1.1l-10.916-13.86a3.062,3.062,0,0,0-.33-0.36,1.425,1.425,0,0,0-.315-0.218,1.079,1.079,0,0,0-.367-0.1,4.52,4.52,0,0,0-.487-0.022h-2.369v21.765h3.973V315.489q0-.435-0.022-0.945t-0.068-1.035l10.841,13.8a2.139,2.139,0,0,0,.705.592,2.034,2.034,0,0,0,.884.173h2.325V306.309h-3.974Z" transform="translate(-748.563 -196)"/>
  <path id="Rectangle_3_copy_60" data-name="Rectangle 3 copy 60" class="cls-1" d="M844.471,211.581l-2.763,2.755,2.655,2.647-2.625,2.618-2.656-2.647-2.639,2.632-2.618-2.611,2.64-2.631-2.779-2.772,2.625-2.616,2.779,2.77,2.763-2.755Z" transform="translate(-748.563 -196)"/>
  <path id="Rectangle_3_copy_61" data-name="Rectangle 3 copy 61" class="cls-1" d="M844.471,224.279l-2.763,2.755,2.655,2.648-2.625,2.618-2.655-2.648-2.64,2.632-2.618-2.61,2.639-2.632-2.778-2.771,2.625-2.618,2.779,2.771,2.763-2.755Z" transform="translate(-748.563 -196)"/>
  <path id="Rectangle_3_copy_62" data-name="Rectangle 3 copy 62" class="cls-1" d="M844.471,236.978l-2.763,2.755,2.655,2.647L841.738,245l-2.655-2.646-2.64,2.632-2.618-2.611,2.64-2.632-2.779-2.77,2.625-2.618,2.779,2.771,2.763-2.756Z" transform="translate(-748.563 -196)"/>
  <path id="Shape_9_copy_61" data-name="Shape 9 copy 61" class="cls-1" d="M862.968,205.239s-17.756-5.3-23.616-9.247c0,0-4.97,3.477-23.334,9.247,0,0-1.559,50.768,23.734,50.768C864.444,256.007,862.968,205.239,862.968,205.239ZM857.53,209.1s-13.688-4.338-18.311-6.868a150.055,150.055,0,0,1-17.767,6.868s0,42.213,18.673,41.567C857.361,250.072,857.53,209.1,857.53,209.1Z" transform="translate(-748.563 -196)"/>
</svg>
