<svg xmlns="http://www.w3.org/2000/svg" xmlns:xlink="http://www.w3.org/1999/xlink" width="96.281" height="153.56" viewBox="0 0 96.281 153.56">
  <defs>
    <style>
      .cls-1, .cls-3 {
        fill: #aaa;
      }

      .cls-1 {
        fill-opacity: 0;
        stroke: #fff;
        stroke-linejoin: round;
        stroke-width: 2px;
      }

      .cls-1, .cls-2, .cls-3 {
        fill-rule: evenodd;
      }

      .cls-2 {
        fill: #1bce7c;
        filter: url(#filter);
      }

      .cls-3 {
        filter: url(#filter-2);
      }
    </style>
    <filter id="filter" x="759.813" y="2781.25" width="96.281" height="24.97" filterUnits="userSpaceOnUse">
      <feFlood result="flood" flood-color="#fff"/>
      <feComposite result="composite" operator="in" in2="SourceGraphic"/>
      <feBlend result="blend" in2="SourceGraphic"/>
    </filter>
    <filter id="filter-2" x="786.438" y="2850.31" width="40.687" height="34" filterUnits="userSpaceOnUse">
      <feFlood result="flood" flood-color="#fff"/>
      <feComposite result="composite" operator="in" in2="SourceGraphic"/>
      <feBlend result="blend" in2="SourceGraphic"/>
    </filter>
  </defs>
  <path id="Ellipse_1_copy" data-name="Ellipse 1 copy" class="cls-1" d="M808,2826.18a36.217,36.217,0,0,1,36.221,36.22c0,30.07-34.4,71.42-36.221,71.42-1.744,0-36.221-41.74-36.221-71.42A36.217,36.217,0,0,1,808,2826.18Z" transform="translate(-759.813 -2781.25)"/>
  <path id="dinner" class="cls-2" d="M772.331,2801.61a8.092,8.092,0,0,1-2.431,2.43,5.582,5.582,0,0,1-3.043.87,4.779,4.779,0,0,1-4-1.77q-1.386-1.785-1.386-5.56a11.472,11.472,0,0,1,.383-3.05,7.015,7.015,0,0,1,1.139-2.38,5.259,5.259,0,0,1,1.878-1.54,5.974,5.974,0,0,1,2.618-.54,5.871,5.871,0,0,1,2.7.6,5.755,5.755,0,0,1,2.15,2.05v8.89Zm0-20.35v10.03a6.308,6.308,0,0,0-2.193-1.87,6.706,6.706,0,0,0-2.975-.62,6.907,6.907,0,0,0-3.153.68,6.626,6.626,0,0,0-2.3,1.86,8.256,8.256,0,0,0-1.419,2.79,11.883,11.883,0,0,0-.485,3.45q0,4.32,1.734,6.48a5.883,5.883,0,0,0,4.862,2.16,6.4,6.4,0,0,0,3.366-.9,9,9,0,0,0,2.618-2.43l0.17,2.67a0.467,0.467,0,0,0,.51.44h0.884v-24.74h-1.615Zm8.4,7.82V2806h1.615v-16.92h-1.615Zm2.184-6.41a1.523,1.523,0,0,0-.807-0.81,1.452,1.452,0,0,0-1.156,0,1.645,1.645,0,0,0-.476.32,1.542,1.542,0,0,0-.323.49,1.434,1.434,0,0,0-.119.58,1.322,1.322,0,0,0,.119.57,1.57,1.57,0,0,0,.323.47,1.467,1.467,0,0,0,.476.32,1.452,1.452,0,0,0,1.156,0,1.478,1.478,0,0,0,.476-0.32,1.714,1.714,0,0,0,.331-0.47,1.257,1.257,0,0,0,.128-0.57A1.363,1.363,0,0,0,782.913,2782.67Zm7.607,6.84a0.457,0.457,0,0,0-.493-0.43h-0.9V2806h1.632v-12.72a8.771,8.771,0,0,1,2.559-2.33,6.02,6.02,0,0,1,3.085-.85,4.008,4.008,0,0,1,3.315,1.36,5.778,5.778,0,0,1,1.088,3.73V2806h1.632v-10.81a9.059,9.059,0,0,0-.357-2.65,5.629,5.629,0,0,0-1.054-2.01,4.524,4.524,0,0,0-1.759-1.28,6.443,6.443,0,0,0-2.457-.44,6.749,6.749,0,0,0-3.425.89,9.648,9.648,0,0,0-2.712,2.34Zm19.72,0a0.457,0.457,0,0,0-.493-0.43h-0.9V2806h1.632v-12.72a8.771,8.771,0,0,1,2.559-2.33,6.018,6.018,0,0,1,3.085-.85,4.008,4.008,0,0,1,3.315,1.36,5.784,5.784,0,0,1,1.088,3.73V2806h1.632v-10.81a9.059,9.059,0,0,0-.357-2.65,5.629,5.629,0,0,0-1.054-2.01,4.531,4.531,0,0,0-1.759-1.28,6.45,6.45,0,0,0-2.457-.44,6.746,6.746,0,0,0-3.425.89,9.648,9.648,0,0,0-2.712,2.34Zm18.989,6.32a8.5,8.5,0,0,1,.612-2.39,5.818,5.818,0,0,1,1.215-1.84,5.091,5.091,0,0,1,1.794-1.17,6.4,6.4,0,0,1,2.346-.41,5.391,5.391,0,0,1,2.116.4,4.755,4.755,0,0,1,1.658,1.15,5.161,5.161,0,0,1,1.079,1.82,7.307,7.307,0,0,1,.383,2.44h-11.2Zm12.223,1.04a0.377,0.377,0,0,0,.34-0.14,0.9,0.9,0,0,0,.1-0.51,8.926,8.926,0,0,0-.519-3.16,6.762,6.762,0,0,0-1.419-2.32,5.868,5.868,0,0,0-2.125-1.43,7.009,7.009,0,0,0-2.652-.5,7.863,7.863,0,0,0-3.222.63,6.854,6.854,0,0,0-2.4,1.74,7.757,7.757,0,0,0-1.5,2.66,10.385,10.385,0,0,0-.518,3.35,12.288,12.288,0,0,0,.552,3.84,8.053,8.053,0,0,0,1.573,2.83,6.685,6.685,0,0,0,2.448,1.76,8.085,8.085,0,0,0,3.162.6,9.335,9.335,0,0,0,1.9-.19,10.425,10.425,0,0,0,1.768-.5,7.98,7.98,0,0,0,1.5-.75,4.754,4.754,0,0,0,1.08-.96l-0.442-.54a0.4,0.4,0,0,0-.34-0.17,1.112,1.112,0,0,0-.544.28,8.012,8.012,0,0,1-1.012.63,8.6,8.6,0,0,1-1.572.63,7.633,7.633,0,0,1-2.21.28,6.678,6.678,0,0,1-2.584-.49,5.215,5.215,0,0,1-1.972-1.47,6.9,6.9,0,0,1-1.258-2.43,11.451,11.451,0,0,1-.442-3.35v-0.32h12.308Zm7.293-7.26a0.705,0.705,0,0,0-.153-0.41,0.565,0.565,0,0,0-.408-0.12h-0.867V2806h1.632v-10.95a13.61,13.61,0,0,1,.824-2.01,5.5,5.5,0,0,1,1.054-1.47,4.015,4.015,0,0,1,1.36-.9,4.92,4.92,0,0,1,1.743-.29,4.078,4.078,0,0,1,1.1.12,2.384,2.384,0,0,0,.621.11,0.328,0.328,0,0,0,.323-0.27l0.136-1.12a2.555,2.555,0,0,0-.9-0.33,5.959,5.959,0,0,0-1.037-.09,5.357,5.357,0,0,0-1.794.29,4.875,4.875,0,0,0-1.462.86,5.944,5.944,0,0,0-1.156,1.37,10.567,10.567,0,0,0-.892,1.84Z" transform="translate(-759.813 -2781.25)"/>
  <path class="cls-3" d="M817.768,2869.97a4.9,4.9,0,0,0,1.743.75s2.44-.3,3.735.5a1.079,1.079,0,0,0,1-1.5,1.61,1.61,0,0,1,1.494-.74s0.6-.2.249-1c0,0-.7-1.19.249-1.74a1.244,1.244,0,0,0-.249-1.74,1.742,1.742,0,0,1-.249-2s3.636-3.28-1-6.22c0,0-.7-0.55,1-1.5,0,0-5.03-1.34-9.462,4.74,0,0-2.44,2.93-2.739,3.23s-2.042,1-2.739-.5c0,0,.448-0.69,2.241-0.74,0,0,.5.15,0.249-0.75a8.531,8.531,0,0,0-4.233-5.73,11.458,11.458,0,0,1-2.739-2.99,4.064,4.064,0,0,0-2.988-1.74c-1.942-.1-2.241,1.25-2.241,1.25s-2.739,4.33-2.739,6.47a0.822,0.822,0,0,1-.747,1s-5.478,3.13-5.976,3.23a4.554,4.554,0,0,0-2.49,1.5,1.881,1.881,0,0,1-.747.5,9.173,9.173,0,0,0-1.494,1.74,1.221,1.221,0,0,0-.249,1.74s3.387,4.38,5.727,4.24a4.468,4.468,0,0,1,1.494,1.24c0.8,0.95,4.831,1.74,6.723,1.74,0,0-1,5.73,3.486,9.22,0,0,1.644.79,1-1.25,0,0,1.3-.15,1-2.49,0,0,3.088,3.89,4.98,3.24a1.161,1.161,0,0,0,.747-1.75,1.992,1.992,0,0,0-1-1.49,1.253,1.253,0,0,1,0-.99,1.57,1.57,0,0,0-.249-2,1.561,1.561,0,0,1,0-1.24,1.112,1.112,0,0,0-1.494-1s-3.984.15-3.237-.74c0,0,4.333-1.25,4.731-4.74,0,0,.9-1.29,1.494,0,0,0-.348,5.48,3.735,7.97s0.249,0.25.249,0.25a31.322,31.322,0,0,0,5.727,3.98s2.391,0.65,2.988,0a2.334,2.334,0,0,0-.5-1.99,21.57,21.57,0,0,1-.5-2.99s-0.647-3.03-1.992-3.73C821.752,2873.21,818.017,2870.97,817.768,2869.97Zm-14.193,6.73s-1.3-1.25-.747-1.75C802.828,2874.95,803.725,2875.05,803.575,2876.7Z" transform="translate(-759.813 -2781.25)"/>
</svg>
