<?xml version="1.0" encoding="utf-8"?>
<!-- Generator: Adobe Illustrator 19.0.0, SVG Export Plug-In . SVG Version: 6.00 Build 0)  -->
<svg version="1.1" id="Layer_1" xmlns="http://www.w3.org/2000/svg" xmlns:xlink="http://www.w3.org/1999/xlink" width="35" height="56" x="0px" y="0px"
	 viewBox="0 0 74.7 116.2" style="enable-background:new 0 0 74.7 116.2;" xml:space="preserve">
<style type="text/css">
	.st0{fill-rule:evenodd;clip-rule:evenodd;fill: #00dd3b;}
</style>
<g>
	<path class="st0" d="M37.4,0C58,0,74.7,16.7,74.7,37.3c0,20.6-34.3,78.9-37.3,78.9C34.3,116.2,0,57.9,0,37.3C0,16.7,16.7,0,37.4,0
		L37.4,0z M37.4,16.3c12.1,0,21.8,9.8,21.8,21.8c0,12.1-9.8,21.8-21.8,21.8c-12.1,0-21.9-9.8-21.9-21.8
		C15.5,26.1,25.3,16.3,37.4,16.3L37.4,16.3z"/>
</g>
</svg>
