<svg xmlns="http://www.w3.org/2000/svg" xmlns:xlink="http://www.w3.org/1999/xlink" width="129" height="153.81" viewBox="0 0 129 153.81">
  <defs>
    <style>
      .cls-1, .cls-2, .cls-3 {
        fill: #fff;
      }

      .cls-1 {
        fill-opacity: 0;
        stroke: #fff;
        stroke-linejoin: round;
        stroke-width: 2px;
      }

      .cls-1, .cls-3 {
        fill-rule: evenodd;
      }

      .cls-2 {
        font-size: 34px;
        filter: url(#filter);
        font-family: Lato;
        font-weight: 300;
      }

      .cls-3 {
        filter: url(#filter-2);
      }
    </style>
    <filter id="filter" x="0" y="0" width="129" height="26" filterUnits="userSpaceOnUse">
      <feFlood result="flood" flood-color="#fff"/>
      <feComposite result="composite" operator="in" in2="SourceGraphic"/>
      <feBlend result="blend" in2="SourceGraphic"/>
    </filter>
    <filter id="filter-2" x="1074.44" y="2998.31" width="41.62" height="33.72" filterUnits="userSpaceOnUse">
      <feFlood result="flood" flood-color="#fff"/>
      <feComposite result="composite" operator="in" in2="SourceGraphic"/>
      <feBlend result="blend" in2="SourceGraphic"/>
    </filter>
  </defs>
  <path id="Ellipse_1_copy" data-name="Ellipse 1 copy" class="cls-1" d="M1096,2975.18a36.218,36.218,0,0,1,36.22,36.22c0,30.07-34.4,71.42-36.22,71.42-1.74,0-36.22-41.74-36.22-71.42A36.218,36.218,0,0,1,1096,2975.18Z" transform="translate(-1028 -2930)"/>
  <text id="dinner_A" data-name="dinner A" class="cls-2" x="-0.999" y="25.002">dinner A</text>
  <path id="Shape_2_copy_2" data-name="Shape 2 copy 2" class="cls-3" d="M1107,3019h1s1.63,0.05,3.25.22A1.484,1.484,0,0,0,1113,3018a9.788,9.788,0,0,0,1-1,10.182,10.182,0,0,1,1-2,5.946,5.946,0,0,0,1-2,18.807,18.807,0,0,1,0-3,1.757,1.757,0,0,0,0-1,40.991,40.991,0,0,0-1-4s0.49-1.18-1.26-2.22c0,0-5.03-1.34-9.47,4.73,0,0-2.44,2.94-2.73,3.24s-2.05,1-2.74-.5a6.866,6.866,0,0,1,2.2-.25,1.055,1.055,0,0,0,.29-1.24,8.535,8.535,0,0,0-4.24-5.73,11.548,11.548,0,0,1-2.74-2.99,4.044,4.044,0,0,0-2.98-1.74c-1.95-.1-2.24,1.25-2.24,1.25s-2.74,4.33-2.74,6.47a0.822,0.822,0,0,1-.75,1s-5.48,3.13-5.98,3.23a4.567,4.567,0,0,0-2.49,1.5,1.9,1.9,0,0,1-.74.5,9.176,9.176,0,0,0-1.5,1.74,1.227,1.227,0,0,0-.25,1.74s3.39,4.38,5.73,4.24a4.405,4.405,0,0,1,1.49,1.24c0.8,0.95,5.25,1.79,7.14,1.79a10.987,10.987,0,0,0,4,9,0.774,0.774,0,0,0,1-1,6.1,6.1,0,0,0,.07-2.57s3.08,3.89,4.98,3.24a1.159,1.159,0,0,0,.74-1.75,6.094,6.094,0,0,0-.79-1.92,4.335,4.335,0,0,0-.2-0.57,8.583,8.583,0,0,1-.25-1.99,1.556,1.556,0,0,1,0-1.24,1.116,1.116,0,0,0-1.5-1s-3.98.15-3.23-.75c0,0,4.33-1.24,4.73-4.73,0,0,.89-1.29,1.49,0,0,0-.09,5.1,3.74,7.97A31.279,31.279,0,0,0,1107,3028s0.41,0.88,2.75,1.92c0,0,2.39.65,2.99,0a2.327,2.327,0,0,0-.5-1.99,21.522,21.522,0,0,1-.5-2.99s-0.64-3.03-1.99-3.73C1109.75,3021.21,1107.25,3020,1107,3019Z" transform="translate(-1028 -2930)"/>
</svg>
