<svg xmlns="http://www.w3.org/2000/svg" xmlns:xlink="http://www.w3.org/1999/xlink" width="128" height="153.81" viewBox="0 0 128 153.81">
  <defs>
    <style>
      .cls-1, .cls-2, .cls-3 {
        fill: #fff;
      }

      .cls-1 {
        fill-opacity: 0;
        stroke: #fff;
        stroke-linejoin: round;
        stroke-width: 2px;
      }

      .cls-1, .cls-3 {
        fill-rule: evenodd;
      }

      .cls-2 {
        font-size: 34px;
        filter: url(#filter);
        font-family: Lato;
        font-weight: 300;
      }

      .cls-3 {
        filter: url(#filter-2);
      }
    </style>
    <filter id="filter" x="0" y="0" width="128" height="26" filterUnits="userSpaceOnUse">
      <feFlood result="flood" flood-color="#fff"/>
      <feComposite result="composite" operator="in" in2="SourceGraphic"/>
      <feBlend result="blend" in2="SourceGraphic"/>
    </filter>
    <filter id="filter-2" x="1156.72" y="2682.84" width="38.25" height="32.32" filterUnits="userSpaceOnUse">
      <feFlood result="flood" flood-color="#fff"/>
      <feComposite result="composite" operator="in" in2="SourceGraphic"/>
      <feBlend result="blend" in2="SourceGraphic"/>
    </filter>
  </defs>
  <path id="Ellipse_1_copy_5" data-name="Ellipse 1 copy 5" class="cls-1" d="M1176,2657.18a36.218,36.218,0,0,1,36.22,36.22c0,30.07-34.4,71.42-36.22,71.42-1.74,0-36.22-41.74-36.22-71.42A36.218,36.218,0,0,1,1176,2657.18Z" transform="translate(-1112 -2612)"/>
  <text id="dinner_B" data-name="dinner" class="cls-2" x="15.999" y="25.002">dinner</text>
  <path id="Shape_7_copy_2" data-name="Shape 7 copy 2" class="cls-3" d="M1165.83,2715.14a7.909,7.909,0,0,0,.87-8.07s0.51-4.27,11.53-4.32l7.49,6.63a2.68,2.68,0,0,0,2.6.29s2.81-1.76.68-3.67c0,0,1.45,1.29,1.91.78,0,0,2.48-1.27,2.6-2.88,0,0,1.67-.4,1.44-0.86a15.725,15.725,0,0,0-2.59-4.33v-3.17a71.625,71.625,0,0,1-5.19-5.19s0.33-4.89-1.17-5.35c0,0-5.7,3.27-3.74,9.1,0,0-2.1-2.48-1.44-4.33a5.693,5.693,0,0,1,1.73-3.17,17.682,17.682,0,0,0-1.55-3.6,18.051,18.051,0,0,0-2.2,3.89s-14.24-1.61-19.6-4.04C1159.2,2682.85,1150.44,2700.33,1165.83,2715.14Z" transform="translate(-1112 -2612)"/>
</svg>
