<svg xmlns="http://www.w3.org/2000/svg" xmlns:xlink="http://www.w3.org/1999/xlink" width="78.156" height="153.56" viewBox="0 0 78.156 153.56">
  <defs>
    <style>
      .cls-1, .cls-2, .cls-3 {
        fill: #fff;
        fill-rule: evenodd;
      }

      .cls-1 {
        fill-opacity: 0;
        stroke: #fff;
        stroke-linejoin: round;
        stroke-width: 2px;
      }

      .cls-2 {
        filter: url(#filter);
      }

      .cls-3 {
        filter: url(#filter-2);
      }
    </style>
    <filter id="filter" x="711.75" y="2769.19" width="33.25" height="40.47" filterUnits="userSpaceOnUse">
      <feFlood result="flood" flood-color="#fff"/>
      <feComposite result="composite" operator="in" in2="SourceGraphic"/>
      <feBlend result="blend" in2="SourceGraphic"/>
    </filter>
    <filter id="filter-2" x="687.938" y="2704.25" width="78.156" height="25.03" filterUnits="userSpaceOnUse">
      <feFlood result="flood" flood-color="#fff"/>
      <feComposite result="composite" operator="in" in2="SourceGraphic"/>
      <feBlend result="blend" in2="SourceGraphic"/>
    </filter>
  </defs>
  <path class="cls-1" d="M727,2749.18a36.223,36.223,0,0,1,36.221,36.22c0,30.07-34.4,71.42-36.221,71.42-1.744,0-36.221-41.74-36.221-71.42A36.223,36.223,0,0,1,727,2749.18Z" transform="translate(-687.938 -2704.25)"/>
  <path class="cls-2" d="M742.117,2809.64a16.06,16.06,0,0,0,2.221-13.73s-2.4-9.08-10.83-9.99c0,0-6.46-.77-10.509,6.07,0,0-2.99,4.53-5.1,2.24,0,0-3.051-2.81,2.244-5.78a14.507,14.507,0,0,1,3.724-1.81c2.855-.83,7.349-4.72,4.421-12.31,0,0-2.025-5.08-6.651-5.13,0,0-3.325.15-4.529,2.45a12.284,12.284,0,0,1-3.462,3.45c-3.007,1.9-2.181,7.92.785,9.05,0,0-.744-3.32,3.564-7.11a7.454,7.454,0,0,0,6.019-1.26s0.97-.65,1.245.72c0,0,2.132,4.52-2.208,7.01,0,0-2.733,1.28-4.031,1.73,0,0-8.388,2.76-6.794,12.5s10.006,9.83,12.056,9.53c0,0,10.048-2.01,11.346-1.56C735.632,2805.71,738.977,2805.68,742.117,2809.64Z" transform="translate(-687.938 -2704.25)"/>
  <path id="lunch" class="cls-3" d="M687.941,2704.26V2729h1.632v-24.74h-1.632Zm19.873,7.82v12.72a8.673,8.673,0,0,1-2.559,2.34,6.01,6.01,0,0,1-3.085.84,4,4,0,0,1-3.315-1.35,5.8,5.8,0,0,1-1.088-3.73v-10.82h-1.632v10.82a9.106,9.106,0,0,0,.357,2.65,5.582,5.582,0,0,0,1.054,2,4.435,4.435,0,0,0,1.751,1.28,6.424,6.424,0,0,0,2.465.44,6.741,6.741,0,0,0,3.425-.88,9.527,9.527,0,0,0,2.712-2.35l0.153,2.52a0.458,0.458,0,0,0,.493.44h0.9v-16.92h-1.632Zm9.605,0.43a0.458,0.458,0,0,0-.493-0.43h-0.9V2729h1.632v-12.72a8.768,8.768,0,0,1,2.558-2.33,6.021,6.021,0,0,1,3.086-.85,4.011,4.011,0,0,1,3.315,1.36,5.784,5.784,0,0,1,1.088,3.73V2729h1.632v-10.81a9.059,9.059,0,0,0-.357-2.65,5.645,5.645,0,0,0-1.054-2.01,4.535,4.535,0,0,0-1.76-1.28,6.442,6.442,0,0,0-2.456-.44,6.752,6.752,0,0,0-3.426.89,9.644,9.644,0,0,0-2.711,2.34Zm30.123,1.26a7.21,7.21,0,0,0-2.227-1.43,7.628,7.628,0,0,0-2.924-.53,7.949,7.949,0,0,0-3.255.64,6.806,6.806,0,0,0-2.406,1.79,7.865,7.865,0,0,0-1.5,2.76,11.532,11.532,0,0,0-.51,3.53,11.672,11.672,0,0,0,.536,3.68,7.941,7.941,0,0,0,1.5,2.72,6.289,6.289,0,0,0,2.3,1.7,7.1,7.1,0,0,0,2.949.59,9.06,9.06,0,0,0,1.828-.18,8.01,8.01,0,0,0,1.623-.5,6.641,6.641,0,0,0,1.343-.76,5.126,5.126,0,0,0,.986-0.96l-0.425-.54a0.429,0.429,0,0,0-.34-0.17,0.865,0.865,0,0,0-.51.29,6.108,6.108,0,0,1-.841.63,7.542,7.542,0,0,1-1.36.63,6.329,6.329,0,0,1-2.049.29,5.763,5.763,0,0,1-2.414-.5,5.02,5.02,0,0,1-1.853-1.43,6.8,6.8,0,0,1-1.181-2.32,12.2,12.2,0,0,1-.017-6.26,6.662,6.662,0,0,1,1.181-2.35,5.2,5.2,0,0,1,1.913-1.48,6.084,6.084,0,0,1,2.592-.52,5.881,5.881,0,0,1,1.794.23,6.562,6.562,0,0,1,1.232.5,5.927,5.927,0,0,1,.782.5,0.877,0.877,0,0,0,.459.23,0.337,0.337,0,0,0,.213-0.06c0.051-.04.1-0.09,0.161-0.14Zm6.885-9.51H752.8V2729h1.632v-12.72a8.771,8.771,0,0,1,2.559-2.33,6.018,6.018,0,0,1,3.085-.85,4.008,4.008,0,0,1,3.315,1.36,5.784,5.784,0,0,1,1.088,3.73V2729h1.632v-10.81a9.059,9.059,0,0,0-.357-2.65,5.629,5.629,0,0,0-1.054-2.01,4.531,4.531,0,0,0-1.759-1.28,6.45,6.45,0,0,0-2.457-.44,6.806,6.806,0,0,0-3.374.85,9.61,9.61,0,0,0-2.678,2.28v-10.68Z" transform="translate(-687.938 -2704.25)"/>
</svg>
