<svg xmlns="http://www.w3.org/2000/svg" xmlns:xlink="http://www.w3.org/1999/xlink" width="78.15" height="153.56" viewBox="0 0 78.15 153.56">
  <defs>
    <style>
      .cls-1, .cls-2 {
        fill: #aaa;
      }

      .cls-1 {
        fill-opacity: 0;
        stroke: #fff;
        stroke-linejoin: round;
        stroke-width: 2px;
      }

      .cls-1, .cls-2, .cls-3 {
        fill-rule: evenodd;
      }

      .cls-2 {
        filter: url(#filter);
      }

      .cls-3 {
        fill: #1bce7c;
        filter: url(#filter-2);
      }
    </style>
    <filter id="filter" x="1147.75" y="2949.19" width="33.25" height="40.47" filterUnits="userSpaceOnUse">
      <feFlood result="flood" flood-color="#fff"/>
      <feComposite result="composite" operator="in" in2="SourceGraphic"/>
      <feBlend result="blend" in2="SourceGraphic"/>
    </filter>
    <filter id="filter-2" x="1124.94" y="2881.25" width="78.15" height="25.03" filterUnits="userSpaceOnUse">
      <feFlood result="flood" flood-color="#fff"/>
      <feComposite result="composite" operator="in" in2="SourceGraphic"/>
      <feBlend result="blend" in2="SourceGraphic"/>
    </filter>
  </defs>
  <path class="cls-1" d="M1164,2926.18a36.225,36.225,0,0,1,36.22,36.22c0,30.07-34.4,71.42-36.22,71.42-1.74,0-36.22-41.74-36.22-71.42A36.225,36.225,0,0,1,1164,2926.18Z" transform="translate(-1124.94 -2881.25)"/>
  <path class="cls-2" d="M1178.12,2989.64a16.05,16.05,0,0,0,2.22-13.72s-2.4-9.09-10.83-10c0,0-6.46-.77-10.51,6.07,0,0-2.99,4.53-5.1,2.24,0,0-3.05-2.81,2.25-5.78a14.382,14.382,0,0,1,3.72-1.81c2.86-.83,7.35-4.72,4.42-12.31,0,0-2.02-5.07-6.65-5.13,0,0-3.32.15-4.53,2.45a12.326,12.326,0,0,1-3.46,3.45c-3.01,1.9-2.18,7.92.79,9.05,0,0-.75-3.32,3.56-7.11a7.456,7.456,0,0,0,6.02-1.26s0.97-.65,1.24.72c0,0,2.14,4.52-2.21,7.01,0,0-2.73,1.28-4.03,1.73,0,0-8.38,2.76-6.79,12.5s10.01,9.83,12.06,9.53c0,0,10.04-2.01,11.34-1.56C1171.63,2985.71,1174.98,2985.68,1178.12,2989.64Z" transform="translate(-1124.94 -2881.25)"/>
  <path id="lunch" class="cls-3" d="M1124.94,2881.26V2906h1.63v-24.74h-1.63Zm19.87,7.82v12.72a8.644,8.644,0,0,1-2.55,2.34,6.031,6.031,0,0,1-3.09.84,4.013,4.013,0,0,1-3.32-1.35,5.831,5.831,0,0,1-1.08-3.73v-10.82h-1.64v10.82a9.036,9.036,0,0,0,.36,2.65,5.546,5.546,0,0,0,1.06,2,4.355,4.355,0,0,0,1.75,1.28,6.394,6.394,0,0,0,2.46.44,6.765,6.765,0,0,0,3.43-.88,9.574,9.574,0,0,0,2.71-2.35l0.15,2.52a0.46,0.46,0,0,0,.49.44h0.91v-16.92h-1.64Zm9.61,0.43a0.459,0.459,0,0,0-.49-0.43h-0.91V2906h1.64v-12.72a8.651,8.651,0,0,1,2.56-2.33,5.979,5.979,0,0,1,3.08-.85,4.018,4.018,0,0,1,3.32,1.36,5.812,5.812,0,0,1,1.08,3.73V2906h1.64v-10.81a8.988,8.988,0,0,0-.36-2.65,5.592,5.592,0,0,0-1.06-2.01,4.522,4.522,0,0,0-1.75-1.28,6.466,6.466,0,0,0-2.46-.44,6.772,6.772,0,0,0-3.43.89,9.7,9.7,0,0,0-2.71,2.34Zm30.12,1.26a7.119,7.119,0,0,0-2.22-1.43,7.656,7.656,0,0,0-2.93-.53,7.918,7.918,0,0,0-3.25.64,6.821,6.821,0,0,0-2.41,1.79,7.824,7.824,0,0,0-1.5,2.76,12.642,12.642,0,0,0,.03,7.21,8.015,8.015,0,0,0,1.5,2.72,6.271,6.271,0,0,0,2.29,1.7,7.1,7.1,0,0,0,2.95.59,9.16,9.16,0,0,0,1.83-.18,8.061,8.061,0,0,0,1.62-.5,6.406,6.406,0,0,0,1.34-.76,5.04,5.04,0,0,0,.99-0.96l-0.42-.54a0.451,0.451,0,0,0-.34-0.17,0.844,0.844,0,0,0-.51.29,6.468,6.468,0,0,1-.85.63,7.291,7.291,0,0,1-1.36.63,6.3,6.3,0,0,1-2.04.29,5.787,5.787,0,0,1-2.42-.5,5.051,5.051,0,0,1-1.85-1.43,6.678,6.678,0,0,1-1.18-2.32,12.154,12.154,0,0,1-.02-6.26,6.745,6.745,0,0,1,1.18-2.35,5.219,5.219,0,0,1,1.91-1.48,6.128,6.128,0,0,1,2.6-.52,5.853,5.853,0,0,1,1.79.23,6.651,6.651,0,0,1,1.23.5,5.632,5.632,0,0,1,.78.5,0.915,0.915,0,0,0,.46.23,0.38,0.38,0,0,0,.22-0.06c0.05-.04.1-0.09,0.16-0.14Zm6.89-9.51h-1.63V2906h1.63v-12.72a8.774,8.774,0,0,1,2.56-2.33,5.979,5.979,0,0,1,3.08-.85,4.018,4.018,0,0,1,3.32,1.36,5.812,5.812,0,0,1,1.08,3.73V2906h1.64v-10.81a8.988,8.988,0,0,0-.36-2.65,5.736,5.736,0,0,0-1.05-2.01,4.633,4.633,0,0,0-1.76-1.28,6.466,6.466,0,0,0-2.46-.44,6.84,6.84,0,0,0-3.38.85,9.594,9.594,0,0,0-2.67,2.28v-10.68Z" transform="translate(-1124.94 -2881.25)"/>
</svg>
