<svg xmlns="http://www.w3.org/2000/svg" xmlns:xlink="http://www.w3.org/1999/xlink" width="78.156" height="153.56" viewBox="0 0 78.156 153.56">
  <defs>
    <style>
      .cls-1, .cls-2, .cls-3 {
        fill: #fff;
        fill-rule: evenodd;
      }

      .cls-1 {
        fill-opacity: 0;
        stroke: #fff;
        stroke-linejoin: round;
        stroke-width: 2px;
      }

      .cls-2 {
        filter: url(#filter);
      }

      .cls-3 {
        filter: url(#filter-2);
      }
    </style>
    <filter id="filter" x="711.75" y="2769.19" width="33.25" height="40.47" filterUnits="userSpaceOnUse">
      <feFlood result="flood" flood-color="#fff"/>
      <feComposite result="composite" operator="in" in2="SourceGraphic"/>
      <feBlend result="blend" in2="SourceGraphic"/>
    </filter>
    <filter id="filter-2" x="687.938" y="2704.25" width="78.156" height="25.03" filterUnits="userSpaceOnUse">
      <feFlood result="flood" flood-color="#fff"/>
      <feComposite result="composite" operator="in" in2="SourceGraphic"/>
      <feBlend result="blend" in2="SourceGraphic"/>
    </filter>
  </defs>
  <path class="cls-1" d="M727,2749.18a36.223,36.223,0,0,1,36.221,36.22c0,30.07-34.4,71.42-36.221,71.42-1.744,0-36.221-41.74-36.221-71.42A36.223,36.223,0,0,1,727,2749.18Z" transform="translate(-687.938 -2704.25)"/>
  <path class="cls-2" d="M742.117,2809.64a16.06,16.06,0,0,0,2.221-13.73s-2.4-9.08-10.83-9.99c0,0-6.46-.77-10.509,6.07,0,0-2.99,4.53-5.1,2.24,0,0-3.051-2.81,2.244-5.78a14.507,14.507,0,0,1,3.724-1.81c2.855-.83,7.349-4.72,4.421-12.31,0,0-2.025-5.08-6.651-5.13,0,0-3.325.15-4.529,2.45a12.284,12.284,0,0,1-3.462,3.45c-3.007,1.9-2.181,7.92.785,9.05,0,0-.744-3.32,3.564-7.11a7.454,7.454,0,0,0,6.019-1.26s0.97-.65,1.245.72c0,0,2.132,4.52-2.208,7.01,0,0-2.733,1.28-4.031,1.73,0,0-8.388,2.76-6.794,12.5s10.006,9.83,12.056,9.53c0,0,10.048-2.01,11.346-1.56C735.632,2805.71,738.977,2805.68,742.117,2809.64Z" transform="translate(-687.938 -2704.25)"/>
</svg>
