<svg xmlns="http://www.w3.org/2000/svg" xmlns:xlink="http://www.w3.org/1999/xlink" width="94.031" height="185.18" viewBox="0 0 94.031 185.18">
  <defs>
    <style>
      .cls-1, .cls-2, .cls-3 {
        fill: #fff;
        fill-rule: evenodd;
      }

      .cls-1 {
        fill-opacity: 0;
        stroke: #fff;
        stroke-linejoin: round;
        stroke-width: 2px;
      }

      .cls-3 {
        filter: url(#filter);
      }
    </style>
    <filter id="filter" x="912.688" y="2842.59" width="29.656" height="49.85" filterUnits="userSpaceOnUse">
      <feFlood result="flood" flood-color="#fff"/>
      <feComposite result="composite" operator="in" in2="SourceGraphic"/>
      <feBlend result="blend" in2="SourceGraphic"/>
    </filter>
  </defs>
  <path id="Ellipse_1_copy_2" data-name="Ellipse 1 copy 2" class="cls-1" d="M928,2824.18a36.217,36.217,0,0,1,36.221,36.22c0,30.07-34.4,71.42-36.221,71.42-1.744,0-36.221-41.74-36.221-71.42A36.217,36.217,0,0,1,928,2824.18Z" transform="translate(-879.938 -2747.63)"/>
  <path id="coffee_break" data-name="coffee  break" class="cls-2" d="M892.747,2756.77a7.21,7.21,0,0,0-2.227-1.43,7.628,7.628,0,0,0-2.924-.53,7.957,7.957,0,0,0-3.256.64,6.811,6.811,0,0,0-2.405,1.79,7.849,7.849,0,0,0-1.5,2.76,11.532,11.532,0,0,0-.51,3.53,11.673,11.673,0,0,0,.535,3.68,7.958,7.958,0,0,0,1.5,2.72,6.305,6.305,0,0,0,2.295,1.7,7.11,7.11,0,0,0,2.95.59,9.05,9.05,0,0,0,1.827-.18,8,8,0,0,0,1.624-.5,6.668,6.668,0,0,0,1.343-.76,5.155,5.155,0,0,0,.986-0.96l-0.425-.54a0.429,0.429,0,0,0-.34-0.17,0.865,0.865,0,0,0-.51.29,6.125,6.125,0,0,1-.842.63,7.51,7.51,0,0,1-1.36.63,6.319,6.319,0,0,1-2.048.29,5.763,5.763,0,0,1-2.414-.5,5.012,5.012,0,0,1-1.853-1.43,6.821,6.821,0,0,1-1.182-2.32,12.226,12.226,0,0,1-.017-6.26,6.664,6.664,0,0,1,1.182-2.35,5.21,5.21,0,0,1,1.912-1.48,6.092,6.092,0,0,1,2.593-.52,5.878,5.878,0,0,1,1.793.23,6.574,6.574,0,0,1,1.233.5,6,6,0,0,1,.782.5,0.871,0.871,0,0,0,.459.23,0.336,0.336,0,0,0,.212-0.06c0.051-.04.105-0.09,0.162-0.14Zm8.373-1.34a6.779,6.779,0,0,0-2.431,1.76,7.746,7.746,0,0,0-1.513,2.75,12.676,12.676,0,0,0,0,7.18,7.7,7.7,0,0,0,1.513,2.74,6.638,6.638,0,0,0,2.431,1.75,8.992,8.992,0,0,0,6.511,0,6.564,6.564,0,0,0,2.422-1.75,7.8,7.8,0,0,0,1.5-2.74,12.7,12.7,0,0,0,0-7.18,7.842,7.842,0,0,0-1.5-2.75,6.7,6.7,0,0,0-2.422-1.76A8.857,8.857,0,0,0,901.12,2755.43Zm0.612,15a5.009,5.009,0,0,1-1.887-1.49,6.723,6.723,0,0,1-1.139-2.34,12.455,12.455,0,0,1,0-6.13,6.773,6.773,0,0,1,1.139-2.35,5.16,5.16,0,0,1,1.887-1.51,6.979,6.979,0,0,1,5.287,0,5.176,5.176,0,0,1,1.887,1.51,6.674,6.674,0,0,1,1.13,2.35,12.746,12.746,0,0,1,0,6.13,6.624,6.624,0,0,1-1.13,2.34,5.025,5.025,0,0,1-1.887,1.49A6.979,6.979,0,0,1,901.732,2770.43Zm18.283,1.57v-15.18h5.44v-1.21h-5.491v-2.09a7.1,7.1,0,0,1,.281-2.15,3.692,3.692,0,0,1,.79-1.42,2.977,2.977,0,0,1,1.216-.79,4.746,4.746,0,0,1,1.538-.25,5.418,5.418,0,0,1,.748.05c0.215,0.02.391,0.04,0.527,0.05a0.885,0.885,0,0,0,.315-0.04,0.229,0.229,0,0,0,.144-0.19l0.051-.78a4.269,4.269,0,0,0-.96-0.27,6.41,6.41,0,0,0-1.063-.09,5.918,5.918,0,0,0-2.108.36,4.349,4.349,0,0,0-1.632,1.1,5.061,5.061,0,0,0-1.054,1.83,7.88,7.88,0,0,0-.374,2.54v2.14h-2.856v0.66a0.433,0.433,0,0,0,.476.43l2.38,0.15V2772h1.632Zm12.6,0v-15.18h5.44v-1.21h-5.491v-2.09a7.1,7.1,0,0,1,.281-2.15,3.692,3.692,0,0,1,.79-1.42,2.977,2.977,0,0,1,1.216-.79,4.746,4.746,0,0,1,1.538-.25,5.418,5.418,0,0,1,.748.05c0.215,0.02.391,0.04,0.527,0.05a0.885,0.885,0,0,0,.315-0.04,0.229,0.229,0,0,0,.144-0.19l0.051-.78a4.269,4.269,0,0,0-.96-0.27,6.41,6.41,0,0,0-1.063-.09,5.918,5.918,0,0,0-2.108.36,4.349,4.349,0,0,0-1.632,1.1,5.061,5.061,0,0,0-1.054,1.83,7.88,7.88,0,0,0-.374,2.54v2.14h-2.856v0.66a0.433,0.433,0,0,0,.476.43l2.38,0.15V2772h1.632Zm9.945-10.17a8.5,8.5,0,0,1,.612-2.39,5.821,5.821,0,0,1,1.216-1.84,5.1,5.1,0,0,1,1.793-1.17,6.412,6.412,0,0,1,2.346-.41,5.393,5.393,0,0,1,2.117.4,4.741,4.741,0,0,1,1.657,1.15,5.148,5.148,0,0,1,1.08,1.82,7.307,7.307,0,0,1,.382,2.44h-11.2Zm12.223,1.04a0.376,0.376,0,0,0,.34-0.14,0.9,0.9,0,0,0,.1-0.51,8.926,8.926,0,0,0-.518-3.16,6.748,6.748,0,0,0-1.42-2.32,5.859,5.859,0,0,0-2.125-1.43,7.009,7.009,0,0,0-2.652-.5,7.861,7.861,0,0,0-3.221.63,6.854,6.854,0,0,0-2.4,1.74,7.757,7.757,0,0,0-1.5,2.66,10.385,10.385,0,0,0-.519,3.35,12.287,12.287,0,0,0,.553,3.84,8.052,8.052,0,0,0,1.572,2.83,6.685,6.685,0,0,0,2.448,1.76,8.085,8.085,0,0,0,3.162.6,9.338,9.338,0,0,0,1.9-.19,10.425,10.425,0,0,0,1.768-.5,7.98,7.98,0,0,0,1.5-.75,4.748,4.748,0,0,0,1.079-.96l-0.442-.54a0.4,0.4,0,0,0-.34-0.17,1.12,1.12,0,0,0-.544.28,7.918,7.918,0,0,1-1.011.63,8.585,8.585,0,0,1-1.573.63,7.628,7.628,0,0,1-2.21.28,6.681,6.681,0,0,1-2.584-.49,5.223,5.223,0,0,1-1.972-1.47,6.918,6.918,0,0,1-1.258-2.43,11.485,11.485,0,0,1-.442-3.35v-0.32H954.78Zm6.528-1.04a8.5,8.5,0,0,1,.612-2.39,5.821,5.821,0,0,1,1.216-1.84,5.1,5.1,0,0,1,1.793-1.17,6.412,6.412,0,0,1,2.346-.41,5.4,5.4,0,0,1,2.117.4,4.741,4.741,0,0,1,1.657,1.15,5.148,5.148,0,0,1,1.08,1.82,7.307,7.307,0,0,1,.382,2.44h-11.2Zm12.223,1.04a0.376,0.376,0,0,0,.34-0.14,0.9,0.9,0,0,0,.1-0.51,8.949,8.949,0,0,0-.518-3.16,6.748,6.748,0,0,0-1.42-2.32,5.859,5.859,0,0,0-2.125-1.43,7.009,7.009,0,0,0-2.652-.5,7.861,7.861,0,0,0-3.221.63,6.845,6.845,0,0,0-2.4,1.74,7.757,7.757,0,0,0-1.5,2.66,10.385,10.385,0,0,0-.519,3.35,12.257,12.257,0,0,0,.553,3.84,8.052,8.052,0,0,0,1.572,2.83,6.685,6.685,0,0,0,2.448,1.76,8.085,8.085,0,0,0,3.162.6,9.338,9.338,0,0,0,1.9-.19,10.425,10.425,0,0,0,1.768-.5,7.98,7.98,0,0,0,1.5-.75,4.769,4.769,0,0,0,1.079-.96l-0.442-.54a0.4,0.4,0,0,0-.34-0.17,1.12,1.12,0,0,0-.544.28,7.918,7.918,0,0,1-1.011.63,8.585,8.585,0,0,1-1.573.63,7.628,7.628,0,0,1-2.21.28,6.681,6.681,0,0,1-2.584-.49,5.223,5.223,0,0,1-1.972-1.47,6.918,6.918,0,0,1-1.258-2.43,11.485,11.485,0,0,1-.442-3.35v-0.32h12.308ZM894.3,2791.39a8.653,8.653,0,0,1,2.414-2.42,5.653,5.653,0,0,1,3.145-.87,4.7,4.7,0,0,1,3.91,1.77,8.418,8.418,0,0,1,1.394,5.27,13,13,0,0,1-.374,3.25,7.081,7.081,0,0,1-1.131,2.46,5.066,5.066,0,0,1-1.887,1.55,6.072,6.072,0,0,1-2.643.55,5.92,5.92,0,0,1-2.661-.59,5.783,5.783,0,0,1-2.167-2.05v-8.92Zm0-12.13h-1.632V2804h0.986a0.42,0.42,0,0,0,.459-0.42l0.119-2.1a6.227,6.227,0,0,0,2.184,2.05,6.332,6.332,0,0,0,3.069.69,7.18,7.18,0,0,0,3.111-.65,6.518,6.518,0,0,0,2.3-1.86,8.422,8.422,0,0,0,1.437-2.89,13.3,13.3,0,0,0,.493-3.74,12.724,12.724,0,0,0-.442-3.5,7.379,7.379,0,0,0-1.284-2.59,5.733,5.733,0,0,0-2.048-1.62,6.482,6.482,0,0,0-2.737-.56,6.739,6.739,0,0,0-3.434.86,8.485,8.485,0,0,0-2.584,2.36v-10.77Zm19.549,8.35a0.705,0.705,0,0,0-.153-0.41,0.562,0.562,0,0,0-.408-0.12h-0.867V2804h1.632v-10.95a13.5,13.5,0,0,1,.825-2.01,5.474,5.474,0,0,1,1.054-1.47,4.006,4.006,0,0,1,1.36-.9,4.918,4.918,0,0,1,1.742-.29,4.086,4.086,0,0,1,1.1.12,2.371,2.371,0,0,0,.62.11,0.327,0.327,0,0,0,.323-0.27l0.136-1.12a2.555,2.555,0,0,0-.9-0.33,5.959,5.959,0,0,0-1.037-.09,5.356,5.356,0,0,0-1.793.29,4.862,4.862,0,0,0-1.462.86,5.919,5.919,0,0,0-1.156,1.37,10.568,10.568,0,0,0-.893,1.84Zm11.322,6.22a8.5,8.5,0,0,1,.612-2.39,5.818,5.818,0,0,1,1.215-1.84,5.1,5.1,0,0,1,1.794-1.17,6.4,6.4,0,0,1,2.346-.41,5.391,5.391,0,0,1,2.116.4,4.745,4.745,0,0,1,1.658,1.15,5.161,5.161,0,0,1,1.079,1.82,7.307,7.307,0,0,1,.383,2.44h-11.2Zm12.223,1.04a0.4,0.4,0,0,0,.34-0.13,0.963,0.963,0,0,0,.1-0.52,8.926,8.926,0,0,0-.519-3.16,6.842,6.842,0,0,0-1.419-2.32,5.868,5.868,0,0,0-2.125-1.43,7.009,7.009,0,0,0-2.652-.5,7.866,7.866,0,0,0-3.222.63,6.854,6.854,0,0,0-2.4,1.74,7.757,7.757,0,0,0-1.5,2.66,10.413,10.413,0,0,0-.518,3.35,12.288,12.288,0,0,0,.552,3.84,8.053,8.053,0,0,0,1.573,2.83,6.685,6.685,0,0,0,2.448,1.76,8.085,8.085,0,0,0,3.162.6,9.335,9.335,0,0,0,1.9-.19,10.4,10.4,0,0,0,1.768-.5,7.95,7.95,0,0,0,1.5-.75,4.754,4.754,0,0,0,1.08-.96l-0.442-.54a0.4,0.4,0,0,0-.34-0.17,1.112,1.112,0,0,0-.544.28,8.012,8.012,0,0,1-1.012.63,8.6,8.6,0,0,1-1.572.63,7.633,7.633,0,0,1-2.21.28,6.678,6.678,0,0,1-2.584-.49,5.215,5.215,0,0,1-1.972-1.47,6.9,6.9,0,0,1-1.258-2.43,11.451,11.451,0,0,1-.442-3.35v-0.32h12.308Zm15.334,5.37q-0.6.615-1.207,1.14a7.3,7.3,0,0,1-1.318.91,6.863,6.863,0,0,1-1.53.6,7.328,7.328,0,0,1-1.81.21,4.171,4.171,0,0,1-1.275-.19,3,3,0,0,1-1.08-.58,2.938,2.938,0,0,1-.748-1.02,3.6,3.6,0,0,1-.28-1.48,2.542,2.542,0,0,1,.544-1.6,4.289,4.289,0,0,1,1.674-1.22,11.631,11.631,0,0,1,2.873-.8,31.9,31.9,0,0,1,4.157-.39v4.42Zm-9.656-10.27a0.716,0.716,0,0,0,.2.23,0.564,0.564,0,0,0,.306.08,1.033,1.033,0,0,0,.629-0.34,9.734,9.734,0,0,1,.969-0.75,7.656,7.656,0,0,1,1.453-.75,5.808,5.808,0,0,1,2.083-.34,3.623,3.623,0,0,1,3,1.27,5.678,5.678,0,0,1,1.012,3.61v1.77a29.794,29.794,0,0,0-4.922.48,12.428,12.428,0,0,0-3.357,1.09,4.988,4.988,0,0,0-1.921,1.59,3.547,3.547,0,0,0-.612,1.99,4.678,4.678,0,0,0,.382,1.98,3.9,3.9,0,0,0,1.02,1.36,4.263,4.263,0,0,0,1.454.78,5.606,5.606,0,0,0,1.683.25,8.673,8.673,0,0,0,1.9-.2,7.56,7.56,0,0,0,1.615-.58,8.55,8.55,0,0,0,1.436-.92,17.871,17.871,0,0,0,1.386-1.22l0.238,2.17a0.583,0.583,0,0,0,.629.48H954.3v-11.02a8.932,8.932,0,0,0-.34-2.55,5.423,5.423,0,0,0-1.012-1.96,4.389,4.389,0,0,0-1.691-1.24,6.034,6.034,0,0,0-2.38-.43,7.669,7.669,0,0,0-3.315.68,9.812,9.812,0,0,0-2.788,2Zm17.663-10.71V2804h1.632v-8.53h0.765a2.788,2.788,0,0,1,.433.02,1.331,1.331,0,0,1,.315.09,1.124,1.124,0,0,1,.263.16,2.492,2.492,0,0,1,.264.25l7.106,7.62a0.817,0.817,0,0,0,.365.31,1.2,1.2,0,0,0,.434.08h1.411l-7.837-8.53a3.516,3.516,0,0,0-.383-0.42,1.976,1.976,0,0,0-.467-0.31,2.616,2.616,0,0,0,.663-0.57l7.463-7.09h-1.428a0.992,0.992,0,0,0-.51.12,1.158,1.158,0,0,0-.374.31l-6.783,6.44a1.331,1.331,0,0,1-.468.33,1.652,1.652,0,0,1-.45.06h-0.782v-15.08H960.73Z" transform="translate(-879.938 -2747.63)"/>
  <path class="cls-3" d="M939.175,2868.04c0.54-3.11-2.7-4.5-2.7-4.5a4.156,4.156,0,0,1-2.355.92c-1.08,1.55-.4,10.12-0.4,10.12,0.409,8.44-4.3,14.68-7.439,17.87a56.5,56.5,0,0,1-13.587-23.14,69.832,69.832,0,0,1,4.826-6.07,9.848,9.848,0,0,1,4.455-8.91c-4.252-8.64,1.215-11.74,1.215-11.74,1.591,11.24,14.58,8.5,14.58,8.5,3.308,0.61,3.9,3.06,3.645,4.46a6.618,6.618,0,0,0,.405,4.05A7.074,7.074,0,0,1,939.175,2868.04Z" transform="translate(-879.938 -2747.63)"/>
</svg>
