<svg xmlns="http://www.w3.org/2000/svg" xmlns:xlink="http://www.w3.org/1999/xlink" width="74.438" height="153.18" viewBox="0 0 74.438 153.18">
  <defs>
    <style>
      .cls-1, .cls-3 {
        fill: #aaa;
      }

      .cls-1 {
        fill-opacity: 0;
        stroke: #fff;
        stroke-linejoin: round;
        stroke-width: 2px;
      }

      .cls-1, .cls-2, .cls-3 {
        fill-rule: evenodd;
      }

      .cls-2 {
        fill: #1bce7c;
        filter: url(#filter);
      }

      .cls-3 {
        filter: url(#filter-2);
      }
    </style>
    <filter id="filter" x="557.781" y="2629.63" width="65.407" height="24.59" filterUnits="userSpaceOnUse">
      <feFlood result="flood" flood-color="#fff"/>
      <feComposite result="composite" operator="in" in2="SourceGraphic"/>
      <feBlend result="blend" in2="SourceGraphic"/>
    </filter>
    <filter id="filter-2" x="568.438" y="2698.31" width="40.687" height="34" filterUnits="userSpaceOnUse">
      <feFlood result="flood" flood-color="#fff"/>
      <feComposite result="composite" operator="in" in2="SourceGraphic"/>
      <feBlend result="blend" in2="SourceGraphic"/>
    </filter>
  </defs>
  <path id="Ellipse_1_copy_3" data-name="Ellipse 1 copy 3" class="cls-1" d="M590,2674.18a36.217,36.217,0,0,1,36.221,36.22c0,30.07-34.4,71.42-36.221,71.42-1.744,0-36.221-41.74-36.221-71.42A36.217,36.217,0,0,1,590,2674.18Z" transform="translate(-552.781 -2629.63)"/>
  <path id="conf" class="cls-2" d="M570.586,2638.77a7.21,7.21,0,0,0-2.227-1.43,7.628,7.628,0,0,0-2.924-.53,7.949,7.949,0,0,0-3.255.64,6.806,6.806,0,0,0-2.406,1.79,7.865,7.865,0,0,0-1.5,2.76,11.532,11.532,0,0,0-.51,3.53,11.672,11.672,0,0,0,.536,3.68,7.941,7.941,0,0,0,1.5,2.72,6.289,6.289,0,0,0,2.3,1.7,7.1,7.1,0,0,0,2.949.59,9.06,9.06,0,0,0,1.828-.18,8.01,8.01,0,0,0,1.623-.5,6.641,6.641,0,0,0,1.343-.76,5.126,5.126,0,0,0,.986-0.96l-0.425-.54a0.429,0.429,0,0,0-.34-0.17,0.865,0.865,0,0,0-.51.29,6.108,6.108,0,0,1-.841.63,7.542,7.542,0,0,1-1.36.63,6.329,6.329,0,0,1-2.049.29,5.763,5.763,0,0,1-2.414-.5,5.02,5.02,0,0,1-1.853-1.43,6.8,6.8,0,0,1-1.181-2.32,12.2,12.2,0,0,1-.017-6.26,6.662,6.662,0,0,1,1.181-2.35,5.2,5.2,0,0,1,1.913-1.48,6.084,6.084,0,0,1,2.592-.52,5.881,5.881,0,0,1,1.794.23,6.562,6.562,0,0,1,1.232.5,5.927,5.927,0,0,1,.782.5,0.877,0.877,0,0,0,.459.23,0.337,0.337,0,0,0,.213-0.06c0.051-.04.1-0.09,0.161-0.14Zm8.373-1.34a6.779,6.779,0,0,0-2.431,1.76,7.746,7.746,0,0,0-1.513,2.75,12.676,12.676,0,0,0,0,7.18,7.7,7.7,0,0,0,1.513,2.74,6.638,6.638,0,0,0,2.431,1.75,8.992,8.992,0,0,0,6.511,0,6.564,6.564,0,0,0,2.422-1.75,7.8,7.8,0,0,0,1.5-2.74,12.7,12.7,0,0,0,0-7.18,7.842,7.842,0,0,0-1.5-2.75,6.7,6.7,0,0,0-2.422-1.76A8.857,8.857,0,0,0,578.959,2637.43Zm0.612,15a5.009,5.009,0,0,1-1.887-1.49,6.723,6.723,0,0,1-1.139-2.34,12.455,12.455,0,0,1,0-6.13,6.773,6.773,0,0,1,1.139-2.35,5.16,5.16,0,0,1,1.887-1.51,6.979,6.979,0,0,1,5.287,0,5.176,5.176,0,0,1,1.887,1.51,6.674,6.674,0,0,1,1.13,2.35,12.746,12.746,0,0,1,0,6.13,6.624,6.624,0,0,1-1.13,2.34,5.025,5.025,0,0,1-1.887,1.49A6.979,6.979,0,0,1,579.571,2652.43Zm17.331-14.92a0.457,0.457,0,0,0-.493-0.43h-0.9V2654h1.632v-12.72a8.771,8.771,0,0,1,2.559-2.33,6.018,6.018,0,0,1,3.085-.85,4.008,4.008,0,0,1,3.315,1.36,5.784,5.784,0,0,1,1.088,3.73V2654h1.632v-10.81a9.059,9.059,0,0,0-.357-2.65,5.629,5.629,0,0,0-1.054-2.01,4.531,4.531,0,0,0-1.759-1.28,6.45,6.45,0,0,0-2.457-.44,6.746,6.746,0,0,0-3.425.89,9.648,9.648,0,0,0-2.712,2.34Zm20.74,16.49v-15.18h5.44v-1.21h-5.491v-2.09a7.1,7.1,0,0,1,.281-2.15,3.692,3.692,0,0,1,.79-1.42,2.977,2.977,0,0,1,1.216-.79,4.746,4.746,0,0,1,1.538-.25,5.418,5.418,0,0,1,.748.05c0.215,0.02.391,0.04,0.527,0.05a0.885,0.885,0,0,0,.315-0.04,0.229,0.229,0,0,0,.144-0.19l0.051-.78a4.269,4.269,0,0,0-.96-0.27,6.41,6.41,0,0,0-1.063-.09,5.918,5.918,0,0,0-2.108.36,4.349,4.349,0,0,0-1.632,1.1,5.061,5.061,0,0,0-1.054,1.83,7.88,7.88,0,0,0-.374,2.54v2.14h-2.856v0.66a0.433,0.433,0,0,0,.476.43l2.38,0.15V2654h1.632Z" transform="translate(-552.781 -2629.63)"/>
  <path id="Shape_2_copy_2" data-name="Shape 2 copy 2" class="cls-3" d="M599.768,2717.97a4.9,4.9,0,0,0,1.743.75s2.44-.3,3.735.5a1.079,1.079,0,0,0,1-1.5,1.61,1.61,0,0,1,1.494-.74s0.6-.2.249-1c0,0-.7-1.19.249-1.74a1.244,1.244,0,0,0-.249-1.74,1.742,1.742,0,0,1-.249-2s3.636-3.28-1-6.22c0,0-.7-0.55,1-1.5,0,0-5.03-1.34-9.462,4.74,0,0-2.44,2.93-2.739,3.23s-2.042,1-2.739-.5c0,0,.448-0.69,2.241-0.74,0,0,.5.15,0.249-0.75a8.531,8.531,0,0,0-4.233-5.73,11.458,11.458,0,0,1-2.739-2.99,4.064,4.064,0,0,0-2.988-1.74c-1.942-.1-2.241,1.25-2.241,1.25s-2.739,4.33-2.739,6.47a0.822,0.822,0,0,1-.747,1s-5.478,3.13-5.976,3.23a4.554,4.554,0,0,0-2.49,1.5,1.881,1.881,0,0,1-.747.5,9.173,9.173,0,0,0-1.494,1.74,1.221,1.221,0,0,0-.249,1.74s3.387,4.38,5.727,4.24a4.468,4.468,0,0,1,1.494,1.24c0.8,0.95,4.831,1.74,6.723,1.74,0,0-1,5.73,3.486,9.22,0,0,1.644.79,1-1.25,0,0,1.3-.15,1-2.49,0,0,3.088,3.89,4.98,3.24a1.161,1.161,0,0,0,.747-1.75,1.992,1.992,0,0,0-1-1.49,1.253,1.253,0,0,1,0-.99,1.57,1.57,0,0,0-.249-2,1.561,1.561,0,0,1,0-1.24,1.112,1.112,0,0,0-1.494-1s-3.984.15-3.237-.74c0,0,4.333-1.25,4.731-4.74,0,0,.9-1.29,1.494,0,0,0-.348,5.48,3.735,7.97s0.249,0.25.249,0.25a31.322,31.322,0,0,0,5.727,3.98s2.391,0.65,2.988,0a2.334,2.334,0,0,0-.5-1.99,21.57,21.57,0,0,1-.5-2.99s-0.647-3.03-1.992-3.73C603.752,2721.21,600.017,2718.97,599.768,2717.97Zm-14.193,6.73s-1.3-1.25-.747-1.75C584.828,2722.95,585.725,2723.05,585.575,2724.7Z" transform="translate(-552.781 -2629.63)"/>
</svg>
