<svg xmlns="http://www.w3.org/2000/svg" xmlns:xlink="http://www.w3.org/1999/xlink" width="39" height="27.25" viewBox="0 0 39 27.25">
  <defs>
    <style>
      .cls-1 {
        fill: #f8f8f8;
        fill-rule: evenodd;
        filter: url(#filter);
      }
    </style>
    <filter id="filter" x="595" y="844.875" width="39" height="27.25" filterUnits="userSpaceOnUse">
      <feFlood result="flood" flood-color="#fff"/>
      <feComposite result="composite" operator="in" in2="SourceGraphic"/>
      <feBlend result="blend" in2="SourceGraphic"/>
    </filter>
  </defs>
  <path id="Rounded_Rectangle_1_copy_2" data-name="Rounded Rectangle 1 copy 2" class="cls-1" d="M601.061,845.244s6.7-.379,13.412-0.379c6.728,0,13.465.379,13.465,0.379a5.678,5.678,0,0,1,5.678,5.678s0.379,3.785.379,7.571-0.379,7.571-.379,7.571a5.679,5.679,0,0,1-5.678,5.679s-6.773.378-13.519,0.378c-6.693,0-13.358-.378-13.358-0.378a5.679,5.679,0,0,1-5.678-5.679s-0.378-3.822-.378-7.625c0-3.768.378-7.517,0.378-7.517A5.678,5.678,0,0,1,601.061,845.244Zm9.939,7.75v12l10-6Z" transform="translate(-595 -844.875)"/>
</svg>
