<svg xmlns="http://www.w3.org/2000/svg" xmlns:xlink="http://www.w3.org/1999/xlink" width="33" height="32" viewBox="0 0 33 32">
  <defs>
    <style>
      .cls-1 {
        fill: #f8f8f8;
        fill-rule: evenodd;
        filter: url(#filter);
      }
    </style>
    <filter id="filter" x="933" y="10274" width="33" height="32" filterUnits="userSpaceOnUse">
      <feFlood result="flood"/>
      <feComposite result="composite" operator="in" in2="SourceGraphic"/>
      <feBlend result="blend" in2="SourceGraphic"/>
    </filter>
  </defs>
  <path id="Rounded_Rectangle_1_copy" data-name="Rounded Rectangle 1 copy" class="cls-1" d="M963.786,10282.2a16.816,16.816,0,0,0-6-6,16.689,16.689,0,0,0-16.564,0,16.818,16.818,0,0,0-6,6,15.761,15.761,0,0,0-2.213,8.2,15.589,15.589,0,0,0,3.147,9.6,16.058,16.058,0,0,0,8.132,6,1.108,1.108,0,0,0,.859-0.2,0.891,0.891,0,0,0,.279-0.6c0-.1,0-0.4-0.01-1.2-0.008-.7-0.011-1.3-0.011-1.9l-0.494.1a4.193,4.193,0,0,1-1.193.1,8.042,8.042,0,0,1-1.493-.2,3.856,3.856,0,0,1-1.439-.6,2.7,2.7,0,0,1-.945-1.3l-0.215-.5a6.266,6.266,0,0,0-.677-1.1,2.185,2.185,0,0,0-.934-0.8l-0.151-.1q-0.15-.15-0.279-0.3a1.177,1.177,0,0,1-.193-0.3,0.127,0.127,0,0,1,.107-0.2,1.02,1.02,0,0,1,.623-0.1h0.43a4.587,4.587,0,0,1,1.063.6,2.474,2.474,0,0,1,1.042,1.1,3.477,3.477,0,0,0,1.192,1.3,2.658,2.658,0,0,0,1.407.5c0.473,0,.881-0.1,1.225-0.1a3.374,3.374,0,0,0,.967-0.4,3.844,3.844,0,0,1,1.052-2.2,13.569,13.569,0,0,1-2.2-.3,9.9,9.9,0,0,1-2.019-.9,5.487,5.487,0,0,1-1.73-1.4,6.76,6.76,0,0,1-1.127-2.3,10.054,10.054,0,0,1-.441-3.2,6.4,6.4,0,0,1,1.7-4.4,5.573,5.573,0,0,1,.15-4.3,3.482,3.482,0,0,1,1.848.3,14.512,14.512,0,0,1,1.794.8,4.842,4.842,0,0,1,.913.6,14.48,14.48,0,0,1,8.25,0l0.816-.5a9.144,9.144,0,0,1,1.976-1,2.858,2.858,0,0,1,1.741-.2,5.518,5.518,0,0,1,.172,4.3,6.407,6.407,0,0,1,1.7,4.4,11.217,11.217,0,0,1-.44,3.3,7.09,7.09,0,0,1-1.138,2.2,5.612,5.612,0,0,1-1.741,1.4,9.9,9.9,0,0,1-2.019.9,13.569,13.569,0,0,1-2.2.3,4.007,4.007,0,0,1,1.116,3.1v4.5a0.907,0.907,0,0,0,.269.6,1.074,1.074,0,0,0,.849.2,16.058,16.058,0,0,0,8.132-6,15.589,15.589,0,0,0,3.147-9.6A15.771,15.771,0,0,0,963.786,10282.2Z" transform="translate(-933 -10274)"/>
</svg>
