<svg xmlns="http://www.w3.org/2000/svg" width="34" height="34" viewBox="0 0 34 34">
  <defs>
    <style>
      .cls-1 {
        fill: #f8f8f8;
        fill-rule: evenodd;
      }
    </style>
  </defs>
  <path id="Rounded_Rectangle_1_copy" data-name="Rounded Rectangle 1 copy" class="cls-1" d="M906.2,10285.1l0.3,0.2h0.281v-0.5l0.887-.1,0.843,0.6H909.9l0.1-.1c-0.139-.4-0.295-0.9-0.47-1.3h-0.9l-0.454-.5-0.087-.8-0.465.3-0.249.9-0.671-.7-0.027-.6-0.647-.6-0.239-.2h-0.75l0.236,0.6,0.9,0.5,0.157,0.2-0.2.1,0.009,0.5-0.44.2-0.376-.1-0.235-.3h0.612l0.165-.2-1.355-.9-0.1-.4-0.55.5-0.557-.1-0.849,1.1-0.168.4h-1.346l-0.481-.2-0.142-.9,0.173-.5,0.818-.1,0.892,0.1,0.109-.4-0.379-.1,0.129-.8,0.9-.1,0.628-.9,0.648-.1,0.585,0.1h0.216l-0.12-.8-0.71.3-0.251-.7h-0.413l-0.077-.4,0.336-.4,0.8-.3,0.206-.4a17.664,17.664,0,0,0-11.458-4.2,17.154,17.154,0,0,0-10.2,3.3l0.876-.1,0.39,0.3,0.735,0.1,0.057,0.3h1.169l-0.159-.3-1.038-.1,0.244-.2-0.085-.2h-0.938l1.023-.8h0.981l0.461,0.6,0.765,0.1,0.461-.5,0.347,0.2-0.636.6h-0.836a2.861,2.861,0,0,1,.073.6h1.066l0.115-.3h0.735l0.087-.5h-0.432l0.144-.4,0.331-.1h1.154l-0.636.6,0.1,0.4,0.663,0.1-0.043-.7,0.635-.4,1.125-.1,1.629,0.7v0.6l0.519,0.1-0.26.5h-0.736l-0.218.6-1.679-.4,1.321-.7-0.5-.4-1.139.1-0.1.1H890.9l-0.328.4h-0.543l0.043,0.3,0.19,0.1h-0.008l-0.441.1-0.033.3h-0.421l-0.077-.5-0.756.2-1.547.9,0.174,0.6,0.432,0.3,0.865,0.1v1l0.4-.1,0.369-.7,0.919-.3v-1.2l0.512-.4,1.236,0.3-0.086.8h0.332l0.909-.4,0.044,1,0.661,0.3-0.028.6-0.633.3,0.043,0.2,0.764,0.3-0.016.4h-0.223l-0.964-.3-0.041-.3h0l0.282-.2v-0.3h-0.3l-0.076.2-0.531.1h-0.237l-0.151-.3h-0.552l-0.172.1v0.3l0.324,0.1,0.32,0.1h-0.072l-0.292.3-0.128-.1-0.282-.1-0.769.7,0.1,0.1-1.135.6-1.067,1.1-0.073.5-1.07.7-0.531.5,0.059,1-0.735-.3,0-.6h-2.047l-1.06.5-0.46.8-0.183.7,0.3,0.6,0.835,0.1,1.327-.8,0.117,0.4-0.406.7,1.011,0.2,0.1,1.5,1.384,0.3,0.88-1,1.068,0.2,0.375,0.5,1.023-.1,0.029-.3,0.563,0.3,0.635,1h1.1l0.4,0.7,0.058,0.8,1.212,0.5h1.528l0.448,0.7,0.677,0.2-0.13.6-0.742,1-0.217,2-0.67.5h-1l-0.331.6,0.246,1-1.083,1.4-0.345.6-1.032.5-0.678.1-0.028.3,0.476,0.1-0.057.3-0.427.4,0.259,0.3h0.513l-0.028.4-0.137.4-0.044.3,0.759,0.6-0.1.4-1.033-.1-1.027-.8-0.8-1.4,0.112-1.3-0.606-.8,0.245-1.4-0.36-.1v-2.9s-1.009-.7-1.067-0.7a5.3,5.3,0,0,1-.534-0.2l-0.1-.5-1.312-1.6,0.13-.6,0.043-.9,0.909-.7-0.13-1-1.327-.1-1.038-1.2-0.735-.2-0.476-.1,0.058-.4-0.606-.1v0.3l-1.515-.4-0.61-.9,0.248-.5-0.959-1.3-0.164-1h-0.389l0.129,0.9,0.663,1-0.073.4H878.8l-0.692-1.2v-1.3l-0.721-.4v-1A16.907,16.907,0,0,0,876,10290a17.182,17.182,0,0,0,17.354,17,17.58,17.58,0,0,0,13.459-6.3h-0.572v-1.1l-0.663-.9v-1.3l-0.5-.5-0.045-.6,0.643-1.2-1.217-2.1,0.142-1.4-1.1-.2-0.4-.3h-0.736l-0.374.3h-1.3l-0.044.1H899.92l-1.657-1.8,0.014-1.5,0.274-.1,0.1-.5h-0.39l-0.159-.6,1.917-1.4v-0.9l0.939-.5h1.152l0.605-.3,1.947-.2v1Zm-4.868-6.1,0.158-.2,0.571-.1,0.142,0.6,0.3,0.5,0.2,0.3,0.367,0.1-0.346.4-0.671.1h-0.5l0.057-.6,0.419-.1-0.035-.3-0.391-.2-0.273-.2v-0.3h0Zm-0.937,1.1,0.347-.6,0.467-.1,0.332,0.2-0.03.3-0.714.5h-0.4v-0.3h0Zm-9.428,2.1h-0.362l0.02-.2,0.161-.2,0.217,0.1Zm1.266-.5-0.246.1-0.05.2-0.19.1h-0.3a0.318,0.318,0,0,1-.017-0.1h-0.118v-0.2h0.5l0.1-.3h0.423Z" transform="translate(-876 -10273)"/>
</svg>
