<?xml version="1.0" encoding="utf-8"?>
<!-- Generator: Adobe Illustrator 19.0.0, SVG Export Plug-In . SVG Version: 6.00 Build 0)  -->
<svg version="1.1" id="Layer_1" xmlns="http://www.w3.org/2000/svg" xmlns:xlink="http://www.w3.org/1999/xlink" x="0px" y="0px"
	 viewBox="0 0 79.4 79.2" style="enable-background:new 0 0 79.4 79.2;" xml:space="preserve">
<g>
	<path d="M76.4,29.8c-2.4-8.8-7.3-22.6-15.3-27.2c-8-4.7-22.4-2-31.3,0.4C21,5.3,7.2,10.2,2.6,18.2c-4.7,8-2,22.4,0.4,31.2
		c2.4,8.8,7.3,22.6,15.3,27.2c8,4.7,22.4,2,31.3-0.4c8.8-2.4,22.6-7.2,27.3-15.3C81.5,53,78.8,38.6,76.4,29.8z M61.7,48.1l-5.1,1.3
		l1.4,5.1c0.6,2.1-0.7,4.3-2.8,4.9s-4.3-0.7-4.9-2.8l-1.4-5.1l-11.3,3l1.3,5.1c0.6,2.1-0.7,4.3-2.8,4.9c-2.1,0.6-4.3-0.7-4.9-2.8
		l-1.3-5.1l-5.1,1.4c-2.1,0.6-4.3-0.7-4.9-2.8c-0.6-2.1,0.7-4.3,2.8-4.9l5.1-1.4l-3-11.3l-5.1,1.3c-2.1,0.6-4.3-0.7-4.9-2.8
		c-0.6-2.1,0.7-4.3,2.8-4.9l5.1-1.3l-1.4-5.1c-0.6-2.1,0.7-4.3,2.8-4.9c2.1-0.6,4.3,0.7,4.9,2.8l1.4,5.1l11.3-3l-1.3-5.1
		c-0.6-2.1,0.7-4.3,2.8-4.9c2.1-0.6,4.3,0.7,4.9,2.8l1.3,5.1l5.1-1.4c2.1-0.6,4.3,0.7,4.9,2.8c0.6,2.1-0.7,4.3-2.8,4.9l-5.1,1.4
		l3,11.3l5.1-1.3c2.1-0.6,4.3,0.7,4.9,2.8C65.1,45.3,63.9,47.5,61.7,48.1z"/>
	<polygon points="32.5,35.5 35.5,46.8 46.9,43.8 43.8,32.4 	"/>
</g>
</svg>
