<svg xmlns="http://www.w3.org/2000/svg" width="35" height="35" viewBox="0 0 35 35">
  <defs>
    <style>
      .cls-1 {
        fill: #fff;
        fill-rule: evenodd;
      }
    </style>
  </defs>
  <path class="cls-1" d="M941,2882v-35h35v35H941Zm29.077-27.1h-6.5l-4.633,11.55-5.269-11.55H946.86v0.39l2.2,2.65a0.91,0.91,0,0,1,.3.77v10.39a1.194,1.194,0,0,1-.318,1.03l-2.47,3v0.39h7v-0.39l-2.469-3a1.232,1.232,0,0,1-.341-1.03v-8.99l6.147,13.41h0.714l5.28-13.41v10.69a0.549,0.549,0,0,1-.187.53l-1.9,1.84v0.39h9.221v-0.39l-1.833-1.8a0.553,0.553,0,0,1-.209-0.53v-13.22a0.561,0.561,0,0,1,.209-0.53l1.877-1.8v-0.39Z" transform="translate(-941 -2847)"/>
</svg>
