<?xml version="1.0" encoding="utf-8"?>
<svg xmlns="http://www.w3.org/2000/svg" xmlns:xlink="http://www.w3.org/1999/xlink" version="1.1" viewBox="0 0 129 129" enable-background="new 0 0 129 129" width="512px" height="512px">
  <g>
    <g>
      <path d="m42.7,85.7c0.8,0.8 1.8,1.2 2.9,1.2s2.1-0.4 2.9-1.2l16-16 16,16c0.8,0.8 1.8,1.2 2.9,1.2s2.1-0.4 2.9-1.2c1.6-1.6 1.6-4.2 0-5.8l-16-16 16-16c1.6-1.6 1.6-4.2 0-5.8s-4.2-1.6-5.8,0l-16,16-16-16c-1.6-1.6-4.2-1.6-5.8,0-1.6,1.6-1.6,4.2 0,5.8l16,16-16,16c-1.6,1.6-1.6,4.2-1.42109e-14,5.8z" fill="#FFFFFF"/>
    </g>
  </g>
</svg>
