<?xml version="1.0" encoding="utf-8"?>
<!-- Generator: Adobe Illustrator 19.0.0, SVG Export Plug-In . SVG Version: 6.00 Build 0)  -->
<svg version="1.1" id="Layer_1" xmlns="http://www.w3.org/2000/svg" xmlns:xlink="http://www.w3.org/1999/xlink" x="0px" y="0px"
	 viewBox="0 0 102.915 136.989" style="enable-background:new 0 0 102.915 136.989;" xml:space="preserve">
<style type="text/css">
	.st0{fill-rule:evenodd;clip-rule:evenodd;fill:#ffffff;}
</style>
<g>
	<path class="st0" d="M45.74,0v11.416H22.87v11.416H0c0,22.831,0,45.663,0,68.494h11.435v22.831H22.87v11.416h11.435v11.416
		c11.435,0,22.87,0,34.305,0v-11.416h11.435v-11.416H91.48V91.326h11.435c0-22.831,0-45.663,0-68.494h-22.87V11.416h-22.87V0H45.74z
		 M39.965,48.574l5.946,5.908l5.546-5.537l5.546,5.537l5.946-5.908l-5.546-5.565l5.546-5.537l-5.946-5.908l-5.546,5.537
		l-5.546-5.537l-5.946,5.908l5.575,5.537L39.965,48.574z M39.965,102.941l5.946,5.908l5.546-5.537l5.546,5.537l5.946-5.908
		l-5.546-5.537l5.546-5.537l-5.946-5.936l-5.546,5.537l-5.546-5.537l-5.946,5.936l5.575,5.537L39.965,102.941z M39.965,75.743
		l5.946,5.936l5.546-5.537l5.546,5.537l5.946-5.936l-5.546-5.537l5.546-5.537l-5.946-5.936l-5.546,5.565l-5.546-5.565l-5.946,5.936
		l5.575,5.537L39.965,75.743z"/>
</g>
</svg>
