<?xml version="1.0" encoding="utf-8"?><svg width="334" height="315" viewBox="0 0 334 315" xmlns="http://www.w3.org/2000/svg" xmlns:xlink="http://www.w3.org/1999/xlink"><svg width="56" height="40" viewBox="0 0 56 40" id="flag" xmlns="http://www.w3.org/2000/svg"><defs><style>.acls-1{fill:#f8f8f8;fill-rule:evenodd}</style></defs><path class="acls-1" d="M50 18v6h6v6H6v10H0V0h56v6h-6v6h-6v6h6z"/></svg><svg width="26" height="28" viewBox="0 0 26 28" id="flag-small" x="56" y="40" xmlns="http://www.w3.org/2000/svg"><defs><style>.bcls-1{fill:#f8f8f8;filter:url(#bfilter)}.bcls-2{fill-rule:evenodd;filter:url(#bfilter-2)}</style><filter id="bfilter" x="0" y="20" width="4" height="8" filterUnits="userSpaceOnUse"><feFlood result="flood" flood-color="#fc0202"/><feComposite result="composite" operator="in" in2="SourceGraphic"/><feBlend result="blend" in2="SourceGraphic"/></filter><filter id="bfilter-2" x="917" y="5475" width="26" height="20" filterUnits="userSpaceOnUse"><feFlood result="flood" flood-color="#fc0202"/><feComposite result="composite" operator="in" in2="SourceGraphic"/><feBlend result="blend" in2="SourceGraphic"/></filter></defs><path class="bcls-1" d="M0 20h4v8H0z"/><path class="bcls-2" d="M0 0v20h26v-4h-4v-4h-4V8h4V4h4V0H0z"/></svg><svg width="9" height="19.18" viewBox="0 0 9 19.18" id="socials-fb" x="82" y="68" xmlns="http://www.w3.org/2000/svg"><defs><style>.ccls-1{fill:#00d8ff;fill-rule:evenodd;filter:url(#cfilter)}</style><filter id="cfilter" x="285" y="1008.41" width="9" height="19.18" filterUnits="userSpaceOnUse"><feFlood result="flood" flood-color="#fff"/><feComposite result="composite" operator="in" in2="SourceGraphic"/><feBlend result="blend" in2="SourceGraphic"/></filter></defs><path id="cShape_20_copy_9" data-name="Shape 20 copy 9" class="ccls-1" d="M293.99 1008.39l-2.848.01s-3.632-.33-3.581 3.38l-.006 2.73-2.568.01v3.44h2.568v9.64h3.426v-9.63l2.6-.01.307-3.47h-2.9l-.014-2.05a.829.829 0 0 1 .951-.79l2.063-.03v-3.23z" transform="translate(-285 -1008.41)"/></svg><svg width="33" height="32" viewBox="0 0 33 32" id="socials-gh" x="91" y="88" xmlns="http://www.w3.org/2000/svg"><defs><style>.dcls-1{fill:#f8f8f8;fill-rule:evenodd;filter:url(#dfilter)}</style><filter id="dfilter" x="933" y="10274" width="33" height="32" filterUnits="userSpaceOnUse"><feFlood result="flood"/><feComposite result="composite" operator="in" in2="SourceGraphic"/><feBlend result="blend" in2="SourceGraphic"/></filter></defs><path id="dRounded_Rectangle_1_copy" data-name="Rounded Rectangle 1 copy" class="dcls-1" d="M963.786 10282.2a16.816 16.816 0 0 0-6-6 16.689 16.689 0 0 0-16.564 0 16.818 16.818 0 0 0-6 6 15.761 15.761 0 0 0-2.213 8.2 15.589 15.589 0 0 0 3.147 9.6 16.058 16.058 0 0 0 8.132 6 1.108 1.108 0 0 0 .859-.2.891.891 0 0 0 .279-.6c0-.1 0-.4-.01-1.2-.008-.7-.011-1.3-.011-1.9l-.494.1a4.193 4.193 0 0 1-1.193.1 8.042 8.042 0 0 1-1.493-.2 3.856 3.856 0 0 1-1.439-.6 2.7 2.7 0 0 1-.945-1.3l-.215-.5a6.266 6.266 0 0 0-.677-1.1 2.185 2.185 0 0 0-.934-.8l-.151-.1q-.15-.15-.279-.3a1.177 1.177 0 0 1-.193-.3.127.127 0 0 1 .107-.2 1.02 1.02 0 0 1 .623-.1h.43a4.587 4.587 0 0 1 1.063.6 2.474 2.474 0 0 1 1.042 1.1 3.477 3.477 0 0 0 1.192 1.3 2.658 2.658 0 0 0 1.407.5c.473 0 .881-.1 1.225-.1a3.374 3.374 0 0 0 .967-.4 3.844 3.844 0 0 1 1.052-2.2 13.569 13.569 0 0 1-2.2-.3 9.9 9.9 0 0 1-2.019-.9 5.487 5.487 0 0 1-1.73-1.4 6.76 6.76 0 0 1-1.127-2.3 10.054 10.054 0 0 1-.441-3.2 6.4 6.4 0 0 1 1.7-4.4 5.573 5.573 0 0 1 .15-4.3 3.482 3.482 0 0 1 1.848.3 14.512 14.512 0 0 1 1.794.8 4.842 4.842 0 0 1 .913.6 14.48 14.48 0 0 1 8.25 0l.816-.5a9.144 9.144 0 0 1 1.976-1 2.858 2.858 0 0 1 1.741-.2 5.518 5.518 0 0 1 .172 4.3 6.407 6.407 0 0 1 1.7 4.4 11.217 11.217 0 0 1-.44 3.3 7.09 7.09 0 0 1-1.138 2.2 5.612 5.612 0 0 1-1.741 1.4 9.9 9.9 0 0 1-2.019.9 13.569 13.569 0 0 1-2.2.3 4.007 4.007 0 0 1 1.116 3.1v4.5a.907.907 0 0 0 .269.6 1.074 1.074 0 0 0 .849.2 16.058 16.058 0 0 0 8.132-6 15.589 15.589 0 0 0 3.147-9.6 15.771 15.771 0 0 0-2.232-8.2z" transform="translate(-933 -10274)"/></svg><svg width="35" height="35" viewBox="0 0 35 35" id="socials-med" x="124" y="120" xmlns="http://www.w3.org/2000/svg"><defs><style>.ecls-1{fill:#fff;fill-rule:evenodd}</style></defs><path class="ecls-1" d="M0 35V0h35v35H0zM29.077 7.9h-6.5l-4.633 11.55L12.675 7.9H5.86v.39l2.2 2.65a.91.91 0 0 1 .3.77V22.1a1.194 1.194 0 0 1-.318 1.03l-2.47 3v.39h7v-.39l-2.469-3a1.232 1.232 0 0 1-.341-1.03v-8.99l6.147 13.41h.714l5.28-13.41V23.8a.549.549 0 0 1-.187.53l-1.9 1.84v.39h9.221v-.39l-1.833-1.8a.553.553 0 0 1-.209-.53V10.62a.561.561 0 0 1 .209-.53l1.877-1.8V7.9z"/></svg><svg viewBox="0 0 79.4 79.2" width="79.4" height="79.2" id="socials-sl" x="159" y="155" xmlns="http://www.w3.org/2000/svg"><path d="M76.4 29.8C74 21 69.1 7.2 61.1 2.6c-8-4.7-22.4-2-31.3.4C21 5.3 7.2 10.2 2.6 18.2c-4.7 8-2 22.4.4 31.2S10.3 72 18.3 76.6c8 4.7 22.4 2 31.3-.4 8.8-2.4 22.6-7.2 27.3-15.3 4.6-7.9 1.9-22.3-.5-31.1zM61.7 48.1l-5.1 1.3 1.4 5.1c.6 2.1-.7 4.3-2.8 4.9s-4.3-.7-4.9-2.8l-1.4-5.1-11.3 3 1.3 5.1c.6 2.1-.7 4.3-2.8 4.9-2.1.6-4.3-.7-4.9-2.8l-1.3-5.1-5.1 1.4c-2.1.6-4.3-.7-4.9-2.8-.6-2.1.7-4.3 2.8-4.9l5.1-1.4-3-11.3-5.1 1.3c-2.1.6-4.3-.7-4.9-2.8-.6-2.1.7-4.3 2.8-4.9l5.1-1.3-1.4-5.1c-.6-2.1.7-4.3 2.8-4.9 2.1-.6 4.3.7 4.9 2.8l1.4 5.1 11.3-3-1.3-5.1c-.6-2.1.7-4.3 2.8-4.9 2.1-.6 4.3.7 4.9 2.8l1.3 5.1 5.1-1.4c2.1-.6 4.3.7 4.9 2.8.6 2.1-.7 4.3-2.8 4.9l-5.1 1.4 3 11.3 5.1-1.3c2.1-.6 4.3.7 4.9 2.8.6 2.1-.6 4.3-2.8 4.9z"/><path d="M32.5 35.5l3 11.3 11.4-3-3.1-11.4z"/></svg><svg width="21.594" height="17.59" viewBox="0 0 21.594 17.59" id="socials-tw" x="239" y="235" xmlns="http://www.w3.org/2000/svg"><defs><style>.gcls-1{fill:#00d8ff;fill-rule:evenodd;filter:url(#gfilter)}</style><filter id="gfilter" x="241.969" y="1009.41" width="21.594" height="17.59" filterUnits="userSpaceOnUse"><feFlood result="flood" flood-color="#fff"/><feComposite result="composite" operator="in" in2="SourceGraphic"/><feBlend result="blend" in2="SourceGraphic"/></filter></defs><path id="gShape_19_copy" data-name="Shape 19 copy" class="gcls-1" d="M241.973 1025.06s8.875 5.67 16.259-2.33c1.752-1.9 3.02-4.69 3.121-8.92a9.224 9.224 0 0 0 2.217-2.34 6.729 6.729 0 0 1-2.5.73 4.691 4.691 0 0 0 1.932-2.5 7.471 7.471 0 0 1-2.85 1.11 4.44 4.44 0 0 0-5.257-.92c-3.262 1.45-2.312 4.97-2.312 4.97a11.962 11.962 0 0 1-9.12-4.69 4.458 4.458 0 0 0 1.235 5.95 3.682 3.682 0 0 1-1.868-.53s-.412 3.38 3.483 4.4a4.113 4.113 0 0 1-1.932.13s.349 2.47 4.085 3.07c-.002 0-2.155 2.12-6.493 1.87z" transform="translate(-241.969 -1009.41)"/></svg><svg width="34" height="34" viewBox="0 0 34 34" id="socials-ws" x="261" y="253" xmlns="http://www.w3.org/2000/svg"><defs><style>.hcls-1{fill:#f8f8f8;fill-rule:evenodd}</style></defs><path id="hRounded_Rectangle_1_copy" data-name="Rounded Rectangle 1 copy" class="hcls-1" d="M906.2 10285.1l.3.2h.281v-.5l.887-.1.843.6h1.389l.1-.1c-.139-.4-.295-.9-.47-1.3h-.9l-.454-.5-.087-.8-.465.3-.249.9-.671-.7-.027-.6-.647-.6-.239-.2h-.75l.236.6.9.5.157.2-.2.1.009.5-.44.2-.376-.1-.235-.3h.612l.165-.2-1.355-.9-.1-.4-.55.5-.557-.1-.849 1.1-.168.4h-1.346l-.481-.2-.142-.9.173-.5.818-.1.892.1.109-.4-.379-.1.129-.8.9-.1.628-.9.648-.1.585.1h.216l-.12-.8-.71.3-.251-.7h-.413l-.077-.4.336-.4.8-.3.206-.4a17.664 17.664 0 0 0-11.458-4.2 17.154 17.154 0 0 0-10.2 3.3l.876-.1.39.3.735.1.057.3h1.169l-.159-.3-1.038-.1.244-.2-.085-.2h-.938l1.023-.8h.981l.461.6.765.1.461-.5.347.2-.636.6h-.836a2.861 2.861 0 0 1 .073.6h1.066l.115-.3h.735l.087-.5h-.432l.144-.4.331-.1h1.154l-.636.6.1.4.663.1-.043-.7.635-.4 1.125-.1 1.629.7v.6l.519.1-.26.5h-.736l-.218.6-1.679-.4 1.321-.7-.5-.4-1.139.1-.1.1h-.024l-.328.4h-.543l.043.3.19.1h-.008l-.441.1-.033.3h-.421l-.077-.5-.756.2-1.547.9.174.6.432.3.865.1v1l.4-.1.369-.7.919-.3v-1.2l.512-.4 1.236.3-.086.8h.332l.909-.4.044 1 .661.3-.028.6-.633.3.043.2.764.3-.016.4h-.223l-.964-.3-.041-.3.282-.2v-.3h-.3l-.076.2-.531.1h-.237l-.151-.3h-.552l-.172.1v.3l.324.1.32.1h-.072l-.292.3-.128-.1-.282-.1-.769.7.1.1-1.135.6-1.067 1.1-.073.5-1.07.7-.531.5.059 1-.735-.3v-.6h-2.047l-1.06.5-.46.8-.183.7.3.6.835.1 1.327-.8.117.4-.406.7 1.011.2.1 1.5 1.384.3.88-1 1.068.2.375.5 1.023-.1.029-.3.563.3.635 1h1.1l.4.7.058.8 1.212.5h1.528l.448.7.677.2-.13.6-.742 1-.217 2-.67.5h-1l-.331.6.246 1-1.083 1.4-.345.6-1.032.5-.678.1-.028.3.476.1-.057.3-.427.4.259.3h.513l-.028.4-.137.4-.044.3.759.6-.1.4-1.033-.1-1.027-.8-.8-1.4.112-1.3-.606-.8.245-1.4-.36-.1v-2.9s-1.009-.7-1.067-.7a5.3 5.3 0 0 1-.534-.2l-.1-.5-1.312-1.6.13-.6.043-.9.909-.7-.13-1-1.327-.1-1.038-1.2-.735-.2-.476-.1.058-.4-.606-.1v.3l-1.515-.4-.61-.9.248-.5-.959-1.3-.164-1h-.389l.129.9.663 1-.073.4h-.554l-.692-1.2v-1.3l-.721-.4v-1a16.907 16.907 0 0 0-1.387 6.7 17.182 17.182 0 0 0 17.354 17 17.58 17.58 0 0 0 13.459-6.3h-.572v-1.1l-.663-.9v-1.3l-.5-.5-.045-.6.643-1.2-1.217-2.1.142-1.4-1.1-.2-.4-.3h-.736l-.374.3h-1.3l-.044.1h-.727l-1.657-1.8.014-1.5.274-.1.1-.5h-.39l-.159-.6 1.917-1.4v-.9l.939-.5h1.152l.605-.3 1.947-.2v1zm-4.868-6.1l.158-.2.571-.1.142.6.3.5.2.3.367.1-.346.4-.671.1h-.5l.057-.6.419-.1-.035-.3-.391-.2-.273-.2v-.3zm-.937 1.1l.347-.6.467-.1.332.2-.03.3-.714.5h-.4v-.3zm-9.428 2.1h-.362l.02-.2.161-.2.217.1zm1.266-.5l-.246.1-.05.2-.19.1h-.3a.318.318 0 0 1-.017-.1h-.118v-.2h.5l.1-.3h.423z" transform="translate(-876 -10273)"/></svg><svg width="39" height="27.25" viewBox="0 0 39 27.25" id="socials-yt" x="295" y="287" xmlns="http://www.w3.org/2000/svg"><defs><style>.icls-1{fill:#f8f8f8;fill-rule:evenodd;filter:url(#ifilter)}</style><filter id="ifilter" x="595" y="844.875" width="39" height="27.25" filterUnits="userSpaceOnUse"><feFlood result="flood" flood-color="#fff"/><feComposite result="composite" operator="in" in2="SourceGraphic"/><feBlend result="blend" in2="SourceGraphic"/></filter></defs><path id="iRounded_Rectangle_1_copy_2" data-name="Rounded Rectangle 1 copy 2" class="icls-1" d="M601.061 845.244s6.7-.379 13.412-.379c6.728 0 13.465.379 13.465.379a5.678 5.678 0 0 1 5.678 5.678s.379 3.785.379 7.571-.379 7.571-.379 7.571a5.679 5.679 0 0 1-5.678 5.679s-6.773.378-13.519.378c-6.693 0-13.358-.378-13.358-.378a5.679 5.679 0 0 1-5.678-5.679s-.378-3.822-.378-7.625c0-3.768.378-7.517.378-7.517a5.678 5.678 0 0 1 5.678-5.678zm9.939 7.75v12l10-6z" transform="translate(-595 -844.875)"/></svg></svg>